<svg width="90" height="90" viewBox="0 0 90 90" fill="none" xmlns="http://www.w3.org/2000/svg">
<g id="Wireframe J 1" clip-path="url(#clip0_16_105)">
<g id="Group">
<path id="Vector" d="M39.251 77.4875C38.255 77.4875 37.251 77.4147 36.2465 77.2677C32.821 76.7671 29.451 75.4242 26.5015 73.3857L26.396 73.3129L26.5195 73.3423C33.489 75.0026 40.842 75.6482 48.1845 75.2694C55.143 71.5825 57.9505 64.1994 59.4735 58.8058C63.7025 43.8285 64.1355 28.846 60.692 16.6174C59.128 11.0623 55.3665 1.71857 47.539 0.236887C47.1005 0.174441 46.6605 0.118188 46.22 0.0691598L46.2245 0.0211639L46.788 0.0722563C47.04 0.102705 47.2895 0.140896 47.537 0.187343C51.6415 0.770003 55.6855 1.93893 59.576 3.66885C63.7525 5.52572 67.6965 8.00241 71.2985 11.0303C74.866 14.0287 78.032 17.5118 80.7085 21.3814C83.4195 25.3011 85.577 29.5469 87.122 33.9997C88.7085 38.5722 89.6465 43.3459 89.91 48.1889C90.053 50.8111 89.6515 53.3177 88.7165 55.6391C87.8225 57.8598 86.4185 59.9654 84.544 61.8971C78.6305 67.9916 69.641 72.1388 57.8255 74.2238C54.643 74.7853 51.4265 75.1491 48.2075 75.3158C47.6855 75.5899 47.146 75.8407 46.589 76.0688C44.2955 77.0086 41.802 77.4865 39.252 77.4865L39.251 77.4875ZM26.6335 73.4187C32.8075 77.6387 40.251 78.6141 46.5705 76.0249C47.0955 75.8097 47.599 75.5754 48.083 75.3225C40.8145 75.6879 33.5375 75.05 26.633 73.4182L26.6335 73.4187ZM48.2385 0.343201C51.1685 1.09049 53.7635 3.01549 55.969 6.08206C58.421 9.49183 59.9155 13.6861 60.737 16.604C62.55 23.0432 63.3045 30.162 62.9785 37.7629C62.683 44.6506 61.519 51.7349 59.5185 58.8192C58.317 63.0748 56.8485 66.4402 55.03 69.1073C53.183 71.8163 50.972 73.8435 48.3075 75.2632C51.491 75.0939 54.67 74.7321 57.817 74.1774C69.623 72.0944 78.604 67.9513 84.5105 61.8641C88.341 57.916 90.142 53.3167 89.863 48.1925C89.5995 43.3542 88.6625 38.5851 87.0775 34.0167C80.9685 16.4068 65.523 3.10683 48.2385 0.343201Z" fill="white"/>
<path id="Vector_2" d="M17.6775 62.3554L17.622 62.2321C14.977 56.3776 14.5565 49.5808 16.438 43.0941C17.091 40.8429 17.9965 38.7089 19.141 36.7215C19.363 35.6356 19.605 34.5596 19.866 33.4954C21.0765 28.5679 22.6965 23.9417 24.6815 19.7459C26.7995 15.2684 29.3365 11.2765 32.2225 7.88061C36.3965 2.97007 40.7155 0.385517 45.0585 0.199726C49.6935 0.00154985 54.9965 1.96525 58.5815 3.45932C62.891 5.25529 66.9655 7.70102 70.692 10.7284C74.343 13.6943 77.59 17.1861 80.3415 21.1063C83.103 25.0399 85.3015 29.3136 86.8765 33.8092C88.5615 38.6191 89.5335 43.6845 89.77 48.881C89.795 49.2293 89.8075 49.5802 89.8075 49.9327L89.761 49.9343C89.752 49.5906 89.7395 49.2474 89.7245 48.9047C88.9725 38.2775 76.8625 32.3048 71.563 30.1904C63.2085 26.8576 53.691 25.3356 43.2755 25.6659C37.8925 25.8367 32.613 26.5427 27.583 27.7643C24.078 30.0475 21.2455 33.1321 19.189 36.6657C17.3655 45.6353 17.0325 54.6286 17.666 62.2207L17.6775 62.3554ZM19.1325 36.7628C14.7825 44.3059 13.95 53.8751 17.6085 62.0881C17.233 57.498 17.2225 52.7666 17.578 48.0232C17.865 44.1954 18.3865 40.4213 19.1325 36.7628ZM45.9875 25.5746C50 25.5746 53.9125 25.861 57.654 26.4292C62.5935 27.1796 67.279 28.4301 71.5805 30.1455C74.986 31.5039 79.8565 33.8722 83.719 37.4388C87.159 40.6153 89.1555 44.1387 89.673 47.935C89.367 43.0755 88.4145 38.3373 86.8335 33.8252C83.6995 24.8799 77.957 16.6907 70.664 10.766C66.941 7.74127 62.87 5.29813 58.5645 3.5037C54.983 2.0117 49.686 0.0505779 45.0605 0.247722C40.7305 0.432997 36.423 3.01136 32.2575 7.91261C25.3895 15.9929 21.3035 26.2914 19.1975 36.6239C19.6395 35.8638 20.116 35.1252 20.6275 34.4094C22.5535 31.7139 24.8865 29.4638 27.562 27.7215L27.569 27.7184C32.603 26.4953 37.887 25.7887 43.2745 25.6179C44.183 25.589 45.088 25.5746 45.9875 25.5746Z" fill="white"/>
<path id="Vector_3" d="M43.5175 75.4345C42.4075 75.4345 41.305 75.4129 40.213 75.369C36.462 75.2188 32.8155 74.809 29.3745 74.151C21.6505 72.6735 14.9475 69.9635 9.451 66.0955C7.1815 64.4982 4.045 61.8156 1.9925 58.1044C0.0529988 54.5986 -0.474001 50.9943 0.426499 47.391C1.24 44.135 3.1095 41.0772 5.983 38.3022C8.2855 36.0784 11.234 34.0311 14.7455 32.2171C20.833 29.0726 27.747 26.9742 35.296 25.9802C42.2725 25.0616 49.5005 25.1137 56.7785 26.134C60.497 26.6552 70.02 28.3599 78.117 32.9138C81.8675 35.0236 84.7775 37.4626 86.765 40.1638C89.063 43.2861 90.1455 46.7893 89.9835 50.5758C89.8895 52.4713 89.414 54.3602 88.5705 56.1903C86.079 61.5962 80.791 66.1486 72.854 69.7204C66.418 72.6167 59.029 74.4338 50.892 75.1208C48.419 75.3298 45.95 75.4345 43.5165 75.4345H43.5175ZM45.28 25.3707C34.1035 25.3707 23.5505 27.7225 14.7665 32.2604C9.261 35.1046 2.3115 40.0404 0.471999 47.4034C-1.167 53.9618 2.1995 60.9346 9.477 66.0557C23.292 75.7777 41.353 75.8784 50.889 75.0733C59.021 74.3869 66.405 72.5708 72.836 69.6771C80.7625 66.1099 86.0425 61.5658 88.529 56.1701C89.3695 54.3463 89.8435 52.4636 89.9375 50.5742C90.2415 43.475 86.257 37.5472 78.095 32.9566C70.0045 28.4063 60.4885 26.7032 56.7725 26.182C52.9005 25.6391 49.0545 25.3707 45.28 25.3707Z" fill="white"/>
<path id="Vector_4" d="M34.5245 89.9257C32.401 89.9257 30.3485 89.2832 28.419 88.0141C25.022 85.78 22.3465 82.0729 20.466 76.9957C19.7985 75.193 19.2255 73.1989 18.7505 71.0267C11.035 68.1123 5.541 64.0435 2.369 58.8811C0.264 55.4559 -0.3945 51.8407 0.411 48.1373C0.9855 45.4954 2.285 42.8959 4.2725 40.4115C6.061 38.1758 8.3775 36.0991 10.972 34.4053C15.306 31.5761 20.3825 29.4153 26.491 27.7989L26.6195 27.7648L26.51 27.8417C15.6615 35.4736 11.6615 51.3747 17.5925 63.288L17.595 63.2962C17.8765 66.0671 18.276 68.6336 18.7915 70.9905C21.159 71.8834 23.737 72.6683 26.52 73.3423L26.5275 73.3459C32.1 77.2088 38.8295 78.3138 44.99 76.3774C50.8315 74.5417 55.3525 70.2412 57.7195 64.2701L57.955 63.6435L57.9985 63.6606C55.9075 69.641 53.4565 74.6238 50.5065 78.8938C48.855 81.2838 45.404 85.6654 40.8455 88.1555C38.7855 89.2811 36.7435 89.8756 34.777 89.9226C34.693 89.9246 34.608 89.9257 34.5245 89.9257ZM18.803 71.0468C20.6105 79.268 23.84 84.946 28.4435 87.9738C36.4185 93.2188 45.0495 86.7079 50.468 78.866C53.1925 74.9231 55.4905 70.3712 57.473 64.9854C56.2785 67.7371 54.613 70.1158 52.514 72.063C50.351 74.07 47.824 75.5367 45.0035 76.4234C42.0375 77.3554 38.814 77.5897 35.682 77.0999C32.4095 76.5885 29.322 75.3396 26.505 73.3877C23.732 72.7163 21.164 71.935 18.8035 71.0457L18.803 71.0468ZM26.374 27.8794C20.3275 29.4906 15.296 31.6391 10.9965 34.4461C5.397 38.1015 1.555 43.0956 0.456 48.1481C-0.347 51.8391 0.31 55.4414 2.408 58.8558C5.5705 64.0027 11.0475 68.0612 18.738 70.9714C18.226 68.6186 17.828 66.0573 17.5485 63.3065C14.6385 57.4588 13.974 50.5562 15.677 43.8687C16.5025 40.6267 17.841 37.5983 19.655 34.8672C21.4995 32.0896 23.7595 29.7394 26.374 27.8794Z" fill="white"/>
<path id="Vector_5" d="M17.607 63.4232L17.5505 63.3102C14.6385 57.4619 13.9735 50.5572 15.677 43.8682C16.493 40.6633 17.8105 37.6669 19.593 34.9606C19.949 33.4227 20.3415 31.9116 20.77 30.432C22.273 25.2417 24.233 20.3869 26.5945 16.0033C29.284 11.0112 32.2255 7.13022 35.338 4.46877C39.41 0.986748 43.788 -0.412874 48.351 0.308097C53.2015 1.09358 57.932 2.68054 62.41 5.02459C70.511 9.26475 77.384 15.785 82.2865 23.8803C86.8045 31.3398 89.419 39.7581 89.9055 48.3566C89.9905 49.0936 90.017 49.8342 89.9835 50.5763L89.937 50.5753C89.9265 49.8311 89.9 49.0895 89.858 48.3494C89.18 42.528 84.949 38.2357 82.287 36.0712C72.5075 28.1204 59.3755 25.2742 47.0065 25.2742C39.606 25.2742 32.482 26.2919 26.5055 27.8448C23.746 29.7869 21.43 32.2635 19.608 35.0736C18.82 38.502 18.215 42.0717 17.7955 45.7715C17.111 51.8097 17.043 57.7065 17.594 63.2967L17.607 63.4232ZM19.5445 35.1727C14.283 43.363 13.1975 54.3484 17.536 63.1744C16.9985 57.6183 17.07 51.7623 17.75 45.7659C18.162 42.1331 18.763 38.5866 19.5445 35.1727ZM47.0065 25.2025C49.8705 25.2025 52.6985 25.3563 55.4435 25.6675C60.5935 26.2512 65.425 27.3742 69.8035 29.0055C74.5415 30.771 78.751 33.1352 82.3155 36.033C84.69 37.9632 86.561 40.1034 87.877 42.3938C88.878 44.1356 89.527 45.9217 89.819 47.7316C88.5775 29.7884 78.036 13.2577 62.3885 5.06743C57.9145 2.72595 53.189 1.14054 48.3435 0.355577C38.24 -1.24067 30.961 7.99621 26.635 16.0265C23.588 21.6828 21.2535 27.9888 19.656 34.8646C21.526 32.0494 23.8225 29.6733 26.4825 27.8025L26.49 27.7989C33.0875 26.0845 40.149 25.2025 47.0065 25.2025Z" fill="white"/>
<path id="Vector_6" d="M34.6655 89.9211C32.0895 89.9211 29.6485 88.9973 27.3845 87.1616C24.376 84.722 22.4445 81.2921 21.354 78.8444C18.714 72.9176 17.272 65.949 17.069 58.1318C16.897 51.5074 17.606 44.3709 19.1765 36.9207C20.868 28.8956 23.456 21.689 26.8685 15.5012C31.1085 7.81254 35.659 3.06301 40.7805 0.981641C42.382 0.330859 43.99 0.000564575 45.561 0.000564575C45.592 0.000564575 45.6225 0.000564575 45.653 0.000564575C48.914 0.0506248 51.877 1.49876 54.461 4.30574C57.0395 7.10653 58.6945 10.6861 59.6285 13.1958C60.852 16.4828 61.747 20.1325 62.289 24.0439C62.7665 27.4903 62.985 31.2541 62.938 35.23C62.7535 50.8277 58.805 65.6212 51.82 76.8863C49.787 80.165 47.6615 82.86 45.5025 84.8965C42.7225 87.5187 39.8 89.1392 36.817 89.7121C36.09 89.8519 35.3725 89.9216 34.665 89.9216L34.6655 89.9211ZM45.5605 0.0480444C43.9955 0.0480444 42.3935 0.37679 40.797 1.02551C35.6855 3.10327 31.1425 7.84557 26.908 15.5244C23.498 21.7081 20.912 28.9101 19.221 36.9305C16.805 48.3923 15.221 64.9643 21.3955 78.8242C22.724 81.8067 27.762 91.4022 36.808 89.6646C42.105 88.6474 47.1425 84.3391 51.78 76.86C58.7605 65.6027 62.7065 50.8179 62.8905 35.229C62.9915 26.663 61.91 19.4616 59.584 13.2123C57.774 8.34823 53.556 0.169324 45.652 0.0485604C45.6215 0.0485604 45.591 0.0480444 45.5605 0.0480444Z" fill="white"/>
<path id="Vector_7" d="M43.6205 75.2844C40.6545 75.2844 37.7225 75.1166 34.8365 74.7807C27.2235 73.8945 20.2855 71.8638 14.215 68.744C8.686 65.9025 1.804 60.9377 0.415 53.4225C-0.233 49.9152 0.4695 46.4208 2.503 43.0358C4.1735 40.2546 6.7385 37.5937 9.9205 35.341C15.442 31.4316 22.1525 28.6463 29.865 27.063C33.3155 26.3544 36.969 25.8904 40.7245 25.6835C44.228 25.4904 47.8385 25.5194 51.4555 25.7702C59.557 26.3312 66.9005 28.044 73.2815 30.8603C81.218 34.3635 86.394 38.9004 88.6645 44.3451C89.421 46.1586 89.8055 48.0392 89.808 49.9343C89.7885 53.3853 88.54 56.7187 86.097 59.841C84.11 62.3807 81.3985 64.7175 78.0385 66.7875C72.115 70.4368 64.815 72.9584 56.3415 74.2821C52.063 74.9505 47.8085 75.2854 43.62 75.2854L43.6205 75.2844ZM45.4355 25.6102C35.449 25.6102 21.319 27.3282 9.947 35.3802C6.539 37.7934 -1.208 44.3812 0.461 53.4132C1.8465 60.9093 8.7165 65.8643 14.236 68.7007C25.889 74.6893 40.84 76.654 56.335 74.2336C64.8025 72.9109 72.0965 70.3914 78.015 66.7452C82.382 64.0549 89.7145 58.2928 89.762 49.9332C89.76 48.0449 89.3765 46.171 88.6225 44.3631C86.3565 38.9303 81.189 34.4017 73.264 30.9037C66.888 28.0895 59.5495 26.3781 51.453 25.8171C49.7085 25.6964 47.6755 25.6097 45.436 25.6097L45.4355 25.6102Z" fill="white"/>
<path id="Vector_8" d="M34.9995 89.5933C33.8095 89.5933 32.6315 89.3967 31.481 89.005C29.245 88.2438 27.1595 86.7801 25.2825 84.6554C23.547 82.6902 22.05 80.1949 20.9545 77.4395C20.1395 75.3907 19.467 73.2071 18.93 70.8595C15.7865 69.6513 12.98 68.2254 10.4475 66.5548C7.917 64.8853 5.692 62.8245 4.0125 60.595C2.2035 58.1937 1.047 55.6664 0.5755 53.0839C0.2315 51.1982 0.266 49.3103 0.679 47.472C1.1205 45.5073 1.998 43.5844 3.288 41.7564C5.8185 38.1712 9.4895 35.0932 14.199 32.6093C17.949 30.6312 22.447 28.9859 27.568 27.7179L27.705 27.6838L27.586 27.7612C16.7925 34.7893 12.339 49.7046 17.4455 61.716L17.6655 62.2192C17.934 65.3234 18.3655 68.1774 18.969 70.8223C21.0325 71.614 23.2415 72.3122 25.613 72.9238L25.621 72.9279C31.212 77.1227 38.0705 78.4676 44.4385 76.6174C50.4035 74.8839 55.029 70.5962 57.4625 64.5436L57.506 64.5612C55.6615 69.6332 53.6845 73.8187 51.4615 77.3564C48.647 81.8355 45.427 85.2262 41.8905 87.4345C40.0885 88.5596 38.261 89.2527 36.4575 89.4948C35.97 89.5603 35.4835 89.5928 34.9985 89.5928L34.9995 89.5933ZM18.9825 70.8796C19.5175 73.2128 20.1875 75.384 20.9975 77.4215C23.3255 83.2754 27.152 87.481 31.4955 88.9596C34.873 90.1094 38.3625 89.583 41.867 87.3943C48.043 83.5376 53.0415 76.3516 57.1315 65.4431C55.9085 68.1593 54.225 70.4956 52.1175 72.3974C49.906 74.3936 47.327 75.8288 44.452 76.6644C41.3955 77.5526 38.0865 77.7038 34.8835 77.1015C31.5385 76.4729 28.415 75.0826 25.598 72.9702C23.2375 72.3613 21.038 71.6671 18.9825 70.8796ZM27.443 27.7989C15.9705 30.6601 7.856 35.3652 3.3255 41.7853C0.813 45.3453 -0.0964997 49.1436 0.621 53.0752C1.5365 58.0895 5.127 62.9881 10.472 66.5145C12.9935 68.1779 15.788 69.5992 18.9165 70.8032C18.3165 68.166 17.887 65.3219 17.6195 62.2285L17.403 61.7361C12.3045 49.7469 16.7155 34.8713 27.4425 27.7984L27.443 27.7989Z" fill="white"/>
<path id="Vector_9" d="M39.1265 77.6093C38.3255 77.6093 37.5175 77.5618 36.7045 77.4669C32.7435 77.0029 28.9015 75.4474 25.594 72.9677L25.498 72.8954L25.6135 72.9248C32.1135 74.5773 40.063 75.5703 48.294 75.255C48.314 75.2441 48.3345 75.2328 48.355 75.2214C55.374 71.3446 58.089 63.8257 59.9775 56.2775C61.631 49.6685 62.549 42.9186 62.7065 36.2157C62.9115 27.482 61.8935 20.1314 59.5945 13.7433C57.983 9.26579 54.4345 2.05195 47.9685 0.527441C47.8945 0.516087 47.818 0.504733 47.744 0.493896C46.996 0.38913 46.3035 0.306041 45.6265 0.239982L45.629 0.191986C46.418 0.203856 47.189 0.298299 47.941 0.4748C57.673 1.95132 67.0625 6.77206 74.4015 14.0633C77.7275 17.3678 80.6035 21.1233 82.949 25.2257C85.3185 29.3693 87.1005 33.7875 88.2465 38.358C89.397 42.9465 90.447 48.2488 89.5075 52.7826C89.0375 55.0513 88.0105 57.2684 86.4545 59.373C85.128 61.1674 83.409 62.8927 81.346 64.5013C77.727 67.3222 73.501 69.6446 68.785 71.4034C64.392 73.042 59.58 74.1918 54.483 74.822C52.4405 75.0743 50.3645 75.2421 48.265 75.3251C45.488 76.8342 42.37 77.6093 39.1265 77.6093ZM25.7185 73.0012C32.5655 78.0821 41.3345 78.9883 48.157 75.3298C45.3625 75.4361 42.5275 75.3927 39.677 75.1982C34.896 74.872 30.2005 74.133 25.7185 73.0012ZM48.421 0.598661C50.633 1.22674 52.674 2.5763 54.5135 4.63393C57.075 7.49871 58.714 11.1598 59.6375 13.7263C60.8465 17.086 61.7165 20.8158 62.2235 24.8113C62.6695 28.3294 62.8475 32.1665 62.7525 36.2162C62.595 42.9233 61.6765 49.6768 60.022 56.2888C59.1715 59.6883 58.046 63.6379 56.145 67.1514C54.1665 70.8089 51.633 73.4579 48.4 75.2498C59.893 74.7946 71.9225 71.7858 81.3175 64.4621C85.8465 60.9315 88.5865 56.9984 89.462 52.7717C90.399 48.2477 89.3505 42.9522 88.201 38.3688C85.9005 29.1949 81.1175 20.8018 74.3685 14.0969C67.159 6.93412 57.9685 2.15775 48.42 0.597629L48.421 0.598661ZM46.6105 0.297783C46.7445 0.313782 46.8795 0.330297 47.0165 0.347844C46.8825 0.328749 46.747 0.312234 46.6105 0.297783Z" fill="white"/>
<path id="Vector_10" d="M34.657 89.7425C33.5985 89.7425 32.5535 89.5871 31.523 89.2754C28.564 88.3805 25.9755 86.2981 23.8295 83.0871C22.17 80.6042 20.774 77.4509 19.681 73.7155C17.806 67.3088 17.0035 60.1935 17.2965 52.5674C17.5605 45.6993 18.695 38.6062 20.6695 31.4848C21.7295 27.6611 22.9875 24.0733 24.4085 20.8214C25.9885 17.2058 27.8185 13.8946 29.847 10.9802C32.082 7.76914 34.429 5.22743 36.823 3.42577C39.9045 1.10546 43.058 0.0252925 46.1955 0.213663C47.762 0.319461 49.281 0.765358 50.7095 1.53948C53.413 3.00465 55.721 5.48495 57.569 8.91227C58.997 11.5603 60.1805 14.8369 61.087 18.6508C62.6575 25.2582 63.1395 32.7213 62.52 40.8326C61.9415 48.4036 60.5905 55.5369 58.504 62.0344C56.127 69.4377 52.8415 75.8273 48.738 81.0258C47.093 83.1103 44.4455 85.9864 41.1755 87.8526C38.9705 89.1108 36.788 89.7425 34.657 89.7425ZM45.499 0.2405C38.8105 0.2405 33.3405 6.04336 29.885 11.0076C26.0355 16.5379 22.95 23.4318 20.7145 31.4977C16.53 46.5937 16.1785 61.5823 19.726 73.7015C21.4775 79.685 24.948 87.2359 31.5365 89.229C39.0285 91.4956 45.5075 85.043 48.7025 80.9954C58.496 68.5871 61.5975 52.3042 62.474 40.829C63.0935 32.7229 62.6115 25.2649 61.0425 18.6621C58.966 9.92638 55.4825 4.17977 50.6885 1.5818C49.2655 0.810773 47.753 0.366425 46.193 0.261659C45.9605 0.247725 45.7285 0.241016 45.499 0.241016V0.2405Z" fill="white"/>
<path id="Vector_11" d="M89.9375 50.5753L89.914 49.3831L89.863 48.192L89.7845 47.0024L89.6785 45.8149L89.545 44.6294L89.3845 43.4481L89.197 42.2699L88.9825 41.0968L88.7415 39.9289L88.4735 38.7672L88.179 37.6117L87.8585 36.464L87.512 35.3234L87.1395 34.1916L86.7415 33.0691L86.3185 31.9565L85.8705 30.8541L85.398 29.7626L84.901 28.6824L84.38 27.6152L83.8355 26.5603L83.268 25.5188L82.677 24.4913L82.064 23.4782L81.429 22.4801L80.7725 21.498L80.0945 20.5314L79.396 19.5823L78.6775 18.6497L77.939 17.7352L77.1815 16.8388L76.405 15.9609L75.6105 15.1022L74.798 14.2635L73.969 13.4445L73.123 12.6461L72.261 11.8684L71.3835 11.1123L70.491 10.3779L69.5845 9.66574L68.664 8.97574L67.7305 8.30896L66.7845 7.6654L65.827 7.04507L64.858 6.44899L63.878 5.87665L62.8885 5.32908L61.8895 4.80629L60.8815 4.30827L59.866 3.83554L58.8425 3.38809L57.8125 2.96645L56.7765 2.57061L55.7345 2.2011L54.688 1.8579L53.6375 1.54102L52.583 1.25047L51.526 0.986232L50.4665 0.74935L49.4055 0.538787L48.344 0.355577L47.2815 0.199203L46.2195 0.0696661L46.225 0.0221863L47.2875 0.151724L48.351 0.308097L49.414 0.491823L50.476 0.702386L51.5365 0.939785L52.5945 1.2035L53.65 1.49458L54.7015 1.81197L55.7495 2.15568L56.792 2.52571L57.829 2.92155L58.86 3.34371L59.8845 3.79115L60.901 4.2644L61.91 4.76294L62.91 5.28625L63.9005 5.83485L64.881 6.40719L65.851 7.00429L66.81 7.62463L67.7565 8.26922L68.691 8.93652L69.612 9.62704L70.5195 10.3403L71.4125 11.0752L72.291 11.8318L73.154 12.61L74.0005 13.4094L74.8305 14.229L75.644 15.0686L76.439 15.9279L77.216 16.8068L77.9745 17.7038L78.7135 18.6193L79.433 19.5524L80.132 20.503L80.8105 21.4701L81.4675 22.4533L82.1035 23.4524L82.717 24.466L83.308 25.4946L83.8765 26.5371L84.4215 27.593L84.943 28.6618L85.4405 29.7425L85.9135 30.835L86.362 31.9384L86.7855 33.0521L87.1835 34.1756L87.556 35.3084L87.903 36.45L88.224 37.5988L88.5185 38.7554L88.787 39.9186L89.0285 41.0876L89.243 42.2616L89.4305 43.4409L89.5915 44.6238L89.7245 45.8097L89.8305 46.9988L89.9095 48.1894L89.9605 49.3815L89.984 50.5742L89.9375 50.5753Z" fill="white"/>
<path id="Vector_12" d="M89.762 49.9338L89.7235 48.7463L89.658 47.5603L89.565 46.3764L89.445 45.1946L89.2975 44.0153L89.123 42.8402L88.9215 41.6697L88.6935 40.5039L88.439 39.3432L88.1575 38.1897L87.8505 37.0425L87.517 35.903L87.158 34.7722L86.773 33.6498L86.363 32.5371L85.928 31.4342L85.4685 30.3422L84.984 29.261L84.476 28.1922L83.9445 27.1362L83.389 26.0927L82.811 25.0631L82.2105 24.0475L81.5875 23.0468L80.943 22.0616L80.2775 21.0924L79.5905 20.1392L78.8835 19.203L78.157 18.2844L77.4105 17.3833L76.645 16.5013L75.8615 15.6374L75.06 14.7936L74.2415 13.9689L73.4055 13.1648L72.554 12.3814L71.686 11.6191L70.8035 10.8786L69.9065 10.1596L68.9955 9.46293L68.071 8.78841L67.1335 8.13762L66.1845 7.50955L65.2235 6.90573L64.252 6.32565L63.27 5.76931L62.278 5.23826L61.2775 4.73147L60.2685 4.24996L59.252 3.79322L58.228 3.36281L57.198 2.95768L56.162 2.57836L55.121 2.22484L54.0755 1.89816L53.026 1.59728L51.973 1.32324L50.918 1.07552L49.861 0.855155L48.8025 0.661107L47.7435 0.493896L46.6845 0.353521L45.6265 0.239982L45.631 0.191986L46.69 0.305525L47.75 0.4459L48.81 0.613627L49.8695 0.807675L50.928 1.02856L51.984 1.27628L53.0375 1.55084L54.088 1.85171L55.135 2.17891L56.177 2.53295L57.214 2.91227L58.245 3.31791L59.27 3.74936L60.2875 4.20609L61.2975 4.68812L62.299 5.19491L63.292 5.72699L64.2745 6.28333L65.2475 6.86444L66.209 7.46878L67.1595 8.09737L68.0975 8.74918L69.0225 9.42371L69.9345 10.1209L70.8325 10.8409L71.716 11.5825L72.5845 12.3453L73.437 13.1292L74.2735 13.9343L75.093 14.7595L75.8955 15.6043L76.6795 16.4688L77.4455 17.3518L78.1925 18.2534L78.92 19.1731L79.628 20.1103L80.315 21.064L80.9815 22.0342L81.6265 23.0205L82.25 24.0222L82.851 25.0384L83.4295 26.069L83.9855 27.1135L84.5175 28.1705L85.0265 29.2403L85.511 30.3226L85.971 31.4156L86.4065 32.519L86.817 33.6332L87.202 34.7562L87.5615 35.8885L87.895 37.0291L88.203 38.1774L88.484 39.3324L88.739 40.4935L88.9675 41.6604L89.169 42.8324L89.3435 44.0086L89.491 45.1889L89.6115 46.3717L89.7045 47.5572L89.77 48.7442L89.8085 49.9322L89.762 49.9338Z" fill="white"/>
<path id="Vector_13" d="M74.6655 68.856L74.624 68.8343C76.5295 64.9771 77.7845 60.8614 78.3535 56.6011C79.375 48.9542 78.1975 41.0421 74.948 33.7205C71.752 26.52 66.716 20.2393 60.3835 15.5584L60.4105 15.5192C66.7495 20.2052 71.791 26.4922 74.99 33.7003C76.5815 37.2861 77.685 41.0571 78.27 44.9076C78.8675 48.8402 78.911 52.7764 78.399 56.6078C77.829 60.8732 76.5735 64.9942 74.6655 68.856Z" fill="white"/>
<path id="Vector_14" d="M75.0895 31.748C73.0275 27.9093 70.3845 24.4763 67.233 21.5455C61.89 16.5761 55.0775 13.1792 48.0505 11.9819C41.0635 10.7913 33.7705 11.7776 27.516 14.7595L27.4965 14.7156C30.658 13.2087 34.048 12.2064 37.5735 11.7378C41.051 11.2754 44.5785 11.3415 48.058 11.9345C51.5925 12.5367 55.046 13.6721 58.3215 15.3081C61.5815 16.9363 64.5905 19.0229 67.264 21.5099C70.419 24.4449 73.0655 27.8815 75.13 31.7247L75.089 31.748H75.0895Z" fill="white"/>
<path id="Vector_15" d="M50.595 75.1445L50.5775 75.1001C53.171 74.005 55.519 72.4495 57.5565 70.476C65.0385 63.2286 67.068 51.1285 62.7275 39.6482L62.771 39.6306C63.759 42.2431 64.4305 44.9618 64.7675 47.712C65.1125 50.5273 65.0975 53.309 64.7235 55.9802C63.9155 61.7475 61.4485 66.7721 57.5885 70.5106C55.547 72.4882 53.194 74.0473 50.595 75.1445Z" fill="white"/>
<path id="Vector_16" d="M19.056 38.5975L19.0145 38.5753C21.2535 34.0998 24.5865 30.3788 28.6525 27.8144C30.78 26.4726 33.091 25.4595 35.5225 24.803C37.9605 24.1445 40.4565 23.8617 42.941 23.9623C45.766 24.0769 48.5525 24.6797 51.222 25.7547L51.205 25.7996C48.54 24.7267 45.759 24.1249 42.939 24.0103C37.991 23.8101 32.9255 25.1756 28.6765 27.8552C24.6175 30.4149 21.291 34.1297 19.056 38.5975Z" fill="white"/>
<path id="Vector_17" d="M39.072 77.7177C37.234 77.7177 35.372 77.47 33.5345 76.9699C30.8175 76.2309 28.221 74.9675 25.8165 73.2154L25.8435 73.1761C28.243 74.9252 30.8345 76.186 33.5465 76.9234C38.4455 78.2565 43.52 77.7925 47.835 75.6177C52.2205 73.4079 55.7285 69.3969 57.7125 64.3243L57.7555 64.3423C55.7665 69.4258 52.2505 73.4455 47.855 75.6611C45.1485 77.0251 42.1445 77.7177 39.072 77.7177Z" fill="white"/>
<path id="Vector_18" d="M17.7185 63.2725C15.49 58.8342 14.5615 53.7141 15.033 48.4665C15.261 45.9274 15.814 43.4306 16.6765 41.0458C17.551 38.6274 18.727 36.3711 20.1725 34.3398C21.939 31.8564 24.0755 29.7187 26.5225 27.9857L26.549 28.0255C24.1065 29.7554 21.974 31.8894 20.21 34.3687C14.266 42.7241 13.2815 54.3313 17.76 63.2508L17.7185 63.273V63.2725Z" fill="white"/>
<path id="Vector_19" d="M34.672 87.849C31.7175 87.849 28.763 87.3241 25.8805 86.2857C22.636 85.1173 19.5605 83.358 16.739 81.0578C14.017 78.8386 11.6125 76.1839 9.592 73.1679C7.2465 69.6668 5.473 65.7487 4.32 61.5225L4.365 61.5096C5.5165 65.7306 7.288 69.6441 9.6305 73.1406C13.754 79.2954 19.5305 83.9479 25.896 86.2403C32.229 88.5214 38.839 88.3109 44.508 85.6468L44.5275 85.6907C41.657 87.0397 38.5425 87.7633 35.2705 87.8417C35.0715 87.8464 34.871 87.849 34.672 87.849Z" fill="white"/>
<path id="Vector_20" d="M25.284 84.9341C22.3145 84.0072 19.4725 82.4801 16.8365 80.3957C14.3585 78.4356 12.134 76.044 10.2255 73.2866C8.157 70.2985 6.518 66.9728 5.355 63.401C4.2085 59.8808 3.5515 56.2099 3.403 52.4899C3.2315 48.2085 3.739 43.9178 4.9115 39.737L4.9565 39.7504C3.7855 43.926 3.279 48.2116 3.45 52.4879C3.7495 59.9675 6.1695 67.3439 10.264 73.2582C14.2145 78.9646 19.554 83.0948 25.298 84.8877L25.2845 84.9336L25.284 84.9341Z" fill="white"/>
<path id="Vector_21" d="M24.8335 84.6771C21.8905 83.6888 19.086 82.1153 16.498 80.0009C14.059 78.0077 11.878 75.592 10.015 72.8195C7.9775 69.7875 6.379 66.4222 5.264 62.8158C4.1645 59.261 3.562 55.5627 3.4735 51.8242C3.3725 47.5871 3.9415 43.3367 5.165 39.1915L5.2095 39.2054C3.988 43.3459 3.4195 47.5907 3.52 51.8232C3.699 59.3425 6.019 66.7896 10.0535 72.7927C13.899 78.5151 19.153 82.7196 24.848 84.6317L24.8335 84.6771Z" fill="white"/>
<path id="Vector_22" d="M34.7985 87.4124C32.05 87.4124 29.295 86.951 26.5935 86.0375C20.248 83.8911 14.454 79.3743 10.279 73.3191C7.9305 69.913 6.132 66.0821 4.9335 61.9327L4.978 61.9188C6.175 66.0635 7.9715 69.8892 10.317 73.2913C14.4865 79.3382 20.272 83.8488 26.6085 85.9916C32.889 88.1158 39.404 87.7777 44.953 85.0394L44.973 85.0828C42.1615 86.47 39.1035 87.2457 35.883 87.3881C35.522 87.4041 35.1605 87.4118 34.7995 87.4118L34.7985 87.4124Z" fill="white"/>
<path id="Vector_23" d="M17.497 62.7352C15.461 58.3939 14.621 53.4499 15.0675 48.4376C15.304 45.7845 15.9015 43.1772 16.844 40.6891C17.7935 38.183 19.0715 35.8519 20.644 33.7612C22.437 31.3769 24.5945 29.3229 27.0575 27.6559L27.083 27.6962C24.6245 29.3601 22.4705 31.411 20.6805 33.7906C17.518 37.9962 15.593 43.0626 15.1135 48.4418C14.6675 53.4452 15.506 58.3805 17.5385 62.7136L17.4965 62.7347L17.497 62.7352Z" fill="white"/>
<path id="Vector_24" d="M39.01 77.3054C37.4345 77.3054 35.8525 77.1144 34.2815 76.7325C31.5465 76.0683 28.942 74.8808 26.5405 73.202L26.5665 73.1622C28.9635 74.8374 31.563 76.0229 34.2925 76.6855C44.2615 79.106 54.147 73.6045 57.7975 63.6033L57.841 63.6203C56.948 66.0666 55.6715 68.2842 54.046 70.2123C52.4595 72.0944 50.5875 73.6468 48.482 74.8271C46.369 76.0115 44.0895 76.782 41.708 77.1165C40.8135 77.2424 39.913 77.3048 39.011 77.3048L39.01 77.3054Z" fill="white"/>
<path id="Vector_25" d="M19.018 37.9167L18.977 37.894C21.329 33.3865 24.8665 29.6532 29.206 27.0965C33.584 24.5176 38.5005 23.3064 43.424 23.5944C46.3655 23.7662 49.2185 24.4449 51.903 25.6112L51.885 25.6556C49.2055 24.4913 46.358 23.8137 43.4215 23.6424C33.427 23.0587 23.8475 28.6613 19.018 37.9167Z" fill="white"/>
<path id="Vector_26" d="M51.2095 74.9014L51.1905 74.8576C53.753 73.6866 56.048 72.0841 58.0125 70.0936C61.596 66.4634 64.015 61.4879 64.824 56.0834C65.64 50.6315 64.869 44.7358 62.594 39.0325L62.637 39.0145C64.9155 44.7254 65.6875 50.6305 64.87 56.0907C64.471 58.7562 63.691 61.3098 62.5515 63.6802C61.381 66.1151 59.865 68.2842 58.045 70.1282C56.0765 72.1223 53.777 73.7284 51.2095 74.9014Z" fill="white"/>
<path id="Vector_27" d="M75.815 31.9085C73.7745 28.0043 71.161 24.512 68.0475 21.528C62.6405 16.346 55.7065 12.7746 48.5225 11.472C41.381 10.1772 34.2 11.0633 27.7545 14.0339L27.7355 13.99C30.9475 12.5099 34.3825 11.5402 37.9455 11.1082C41.4615 10.6819 45.0225 10.7888 48.5305 11.4246C52.1455 12.08 55.67 13.2851 59.0055 15.0067C62.3225 16.7186 65.375 18.9006 68.0795 21.4923C71.1965 24.48 73.813 27.9764 75.8565 31.8853L75.8155 31.908L75.815 31.9085Z" fill="white"/>
<path id="Vector_28" d="M75.0965 68.4354L75.0545 68.4142C76.929 64.4972 78.1375 60.2968 78.6475 55.9302C79.535 48.3282 78.261 40.4863 74.963 33.2513C71.6515 25.9864 66.501 19.7186 60.069 15.1244L60.0955 15.0846C63.2825 17.3606 66.1795 20.0731 68.7065 23.1464C71.2405 26.2279 73.3595 29.6212 75.005 33.2307C76.6205 36.7741 77.7595 40.5049 78.3915 44.3193C79.037 48.2162 79.1385 52.1245 78.694 55.9353C78.1835 60.3076 76.9735 64.5137 75.0965 68.4354Z" fill="white"/>
<path id="Vector_29" d="M36.184 75.5114C27.788 75.5114 20.346 74.151 14.059 71.4664C9.2275 69.4031 3.0295 65.5933 0.9425 59.1588C-0.0295003 56.1614 0.0499997 52.9947 1.1785 49.7469C2.1335 46.9998 3.8565 44.2135 6.161 41.6898C8.4905 39.1388 11.3495 36.7912 14.658 34.7119C17.5275 32.9087 20.8195 31.2556 24.4435 29.7982C28.4545 28.1849 32.7005 26.9014 37.063 25.9833C41.3075 25.09 45.7 24.5347 50.118 24.3318C58.8115 23.9334 66.6695 24.9728 73.4745 27.4216C80.3855 29.9081 85.169 33.4707 87.6935 38.0091C88.628 39.6895 89.2105 41.4736 89.4255 43.3119C89.79 46.298 89.1775 49.3687 87.6055 52.4383C86.3015 54.9842 84.379 57.4702 81.8915 59.8276C79.3075 62.2759 76.237 64.5044 72.765 66.4516C69.711 68.1639 66.2605 69.7065 62.51 71.0349C58.3735 72.5006 54.042 73.6241 49.6365 74.3745C45.2855 75.1156 40.8345 75.498 36.4075 75.5104C36.3335 75.5104 36.258 75.5104 36.1845 75.5104L36.184 75.5114ZM53.6875 24.2967C52.5145 24.2967 51.326 24.3241 50.12 24.3798C41.0755 24.7943 32.4425 26.6325 24.4605 29.8431C16.6815 32.9721 10.5365 36.9692 6.195 41.7229C1.103 47.2992 -0.795 53.6485 0.987 59.1433C3.0685 65.5603 9.254 69.3623 14.077 71.422C20.414 74.1278 27.9255 75.4887 36.407 75.4629C45.412 75.4371 54.189 73.9322 62.495 70.9895C70.494 68.1557 77.0095 64.3883 81.86 59.792C85.0505 56.7693 90.2695 50.6093 89.3795 43.3176C89.1655 41.4855 88.585 39.707 87.6535 38.0329C85.135 33.5047 80.3595 29.9494 73.4595 27.4665C67.604 25.3594 60.9655 24.2967 53.6875 24.2967Z" fill="white"/>
<path id="Vector_30" d="M36.378 75.3267C34.277 75.3267 32.1935 75.2379 30.141 75.0604C26.368 74.7342 22.8485 74.1263 19.6815 73.2536C16.0385 72.2498 12.7415 70.8636 9.8815 69.1342C6.9765 67.3769 4.584 65.1639 2.9625 62.7347C1.069 59.8978 0.2385 56.8385 0.494 53.6408C0.7255 50.744 1.8115 47.8467 3.722 45.0289C5.284 42.7246 7.399 40.4657 10.0085 38.3152C15.4085 33.865 22.3205 30.3453 30.5525 27.8541C34.753 26.583 39.0855 25.6541 43.4295 25.0926C47.8075 24.5269 52.228 24.3303 56.568 24.5094C64.863 24.8515 72.0295 26.5329 77.868 29.5071C81.809 31.5147 88.531 36.0181 89.2675 43.6195C89.4355 45.4325 89.2545 47.2816 88.7295 49.1168C87.3055 54.0955 83.57 58.8022 77.6255 63.1053C71.6875 67.4043 64.405 70.6721 55.98 72.8185C51.7305 73.9013 47.413 74.6429 43.147 75.0232C40.882 75.225 38.6195 75.3262 36.3775 75.3262L36.378 75.3267ZM53.3855 24.4918C45.7125 24.4918 38.0515 25.635 30.566 27.9001C22.3395 30.3896 15.433 33.9062 10.038 38.3523C5.997 41.6826 1.069 47.0391 0.541 53.6444C0.0669998 59.5753 3.4805 65.2057 9.906 69.0924C15.243 72.321 22.053 74.3126 30.1455 75.0124C38.5825 75.7416 47.271 74.9881 55.97 72.7715C64.3895 70.6262 71.667 67.3609 77.6 63.0655C83.5355 58.7686 87.265 54.0707 88.686 49.1029C89.209 47.2739 89.3895 45.4304 89.222 43.6241C88.488 36.0459 81.781 31.5534 77.8485 29.55C72.016 26.5784 64.856 24.8985 56.567 24.5569C55.507 24.513 54.4465 24.4913 53.386 24.4913L53.3855 24.4918Z" fill="white"/>
<path id="Vector_31" d="M29.772 76.5978C24.562 76.5978 19.786 75.9212 15.5 74.5706C10.8015 73.0905 4.6685 70.075 2.131 64.1153C1.0545 61.5864 0.778001 58.797 1.3095 55.8233C1.7675 53.262 2.846 50.5655 4.428 48.0258C6.309 45.0062 8.813 42.1156 11.869 39.434C14.4825 37.1411 17.582 34.9312 21.0815 32.8658C25.001 30.5522 29.227 28.5632 33.6425 26.953C37.937 25.3872 42.431 24.1719 47.001 23.3415C56.0315 21.6998 64.2635 21.7524 71.4675 23.4978C74.6825 24.2766 77.5105 25.363 79.8735 26.726C82.7495 28.3852 84.952 30.4676 86.4205 32.9159C87.0715 34.0012 87.5795 35.197 87.931 36.4707C88.6325 39.1703 88.528 42.0562 87.62 45.048C86.8455 47.5995 85.5105 50.1774 83.6515 52.7093C81.465 55.6876 78.6965 58.508 75.422 61.0925C72.577 63.3385 69.2695 65.4689 65.5915 67.4249C61.511 69.595 57.1745 71.4215 52.7025 72.8546C48.272 74.2744 43.6965 75.3107 39.104 75.9357C35.859 76.3769 32.744 76.5978 29.771 76.5978H29.772ZM59.541 22.1963C55.5685 22.1963 51.3835 22.5937 47.0095 23.389C37.634 25.0936 28.9185 28.2959 21.105 32.9076C13.5455 37.3692 7.948 42.4645 4.4675 48.0516C2.443 51.3009 -0.5465 57.7065 2.1735 64.0956C4.704 70.0389 10.8245 73.0471 15.5135 74.5242C22.2395 76.6432 30.175 77.102 39.099 75.8877C48.3105 74.6346 57.4645 71.6929 65.571 67.3821C73.4635 63.1847 79.5345 58.2386 83.615 52.6804C86.4725 48.7881 89.5335 42.8185 87.8865 36.4831C87.536 35.214 87.0295 34.0218 86.381 32.9406C83.6895 28.4528 78.6685 25.2912 71.457 23.5443C67.7475 22.6458 63.7645 22.1958 59.5405 22.1958L59.541 22.1963Z" fill="white"/>
<path id="Vector_32" d="M29.7435 76.3924C26.603 76.3924 23.659 76.1664 20.9675 75.7179C17.095 75.0723 13.605 73.9441 10.5955 72.3644C8.054 71.0308 5.8775 69.2751 4.3015 67.2876C2.504 65.021 1.4805 62.4896 1.2585 59.7642C1.0295 56.9463 1.6175 53.9969 3.007 50.9979C4.1535 48.5228 5.837 46.0224 8.0105 43.5663C12.8605 38.0855 19.5165 33.3788 27.7935 29.5773C32.019 27.6363 36.4225 26.0556 40.881 24.8789C45.408 23.6836 50.007 22.9018 54.5505 22.5534C58.594 22.2438 62.402 22.2835 65.8675 22.6711C69.887 23.1211 73.576 24.0526 76.833 25.4404C79.5995 26.6191 81.936 28.1344 83.778 29.9443C85.908 32.037 87.2945 34.4595 87.899 37.1442C88.167 38.4261 88.2665 39.7246 88.194 41.0034C87.8935 46.3186 84.987 51.7535 79.5555 57.1584C74.1385 62.5484 67.0515 67.0487 58.4925 70.5338C54.207 72.2787 49.807 73.6577 45.415 74.6326C40.8725 75.641 36.31 76.2221 31.8555 76.3604C31.143 76.3826 30.439 76.3934 29.745 76.3934L29.7435 76.3924ZM59.7355 22.397C58.06 22.397 56.3325 22.4652 54.5535 22.6014C45.5585 23.2904 36.3115 25.7175 27.812 29.6212C19.541 33.4196 12.8905 38.1221 8.0445 43.5983C4.6795 47.4008 0.779 53.2914 1.305 59.76C1.7195 64.8553 5.113 69.434 10.6165 72.3215C16.167 75.2338 23.3115 76.5772 31.8525 76.3114C40.702 76.0368 49.659 74.0778 58.474 70.4884C67.0275 67.0058 74.1095 62.5092 79.522 57.1228C84.945 51.7266 87.8465 46.3021 88.146 40.9998C88.218 39.7251 88.119 38.4313 87.852 37.154C86.3425 30.4495 80.2885 26.9649 76.814 25.4843C71.994 23.4302 66.2655 22.3965 59.735 22.3965L59.7355 22.397Z" fill="white"/>
<path id="Vector_33" d="M25.7335 78.3442C24.364 78.3442 23.0175 78.2869 21.6935 78.1724C15.8355 77.6656 8.0555 75.7463 4.2545 69.48C2.6405 66.8185 2.017 63.7086 2.4015 60.2369C2.7235 57.3303 3.7705 54.1889 5.4295 51.1522C9.1145 44.4065 15.2015 38.1603 23.5215 32.5866C28.683 29.1288 34.3215 26.2336 40.2805 23.9814C48.661 20.8142 56.7195 19.2758 64.2355 19.4084C68.1035 19.4765 71.568 19.9823 74.5335 20.9118C78.2495 22.076 81.208 23.9169 83.327 26.3833C84.277 27.4887 85.044 28.7279 85.6065 30.0661C86.8015 32.9912 86.9885 36.272 86.163 39.8185C85.4805 42.7483 84.1345 45.7886 82.1615 48.8552C79.9105 52.3542 77.017 55.7155 73.5615 58.8465C70.5275 61.5957 66.9875 64.2324 63.04 66.6843C57.9215 69.8629 52.38 72.496 46.5705 74.5097C39.214 77.0597 32.224 78.3442 25.7335 78.3442ZM63.337 19.4487C56.085 19.4487 48.339 20.9871 40.2965 24.0268C34.3405 26.278 28.7055 29.1712 23.5465 32.6269C15.233 38.1965 9.151 44.437 5.4695 51.176C1.7765 57.9362 1.348 64.5983 4.2935 69.4547C8.084 75.7039 15.8495 77.6191 21.6965 78.1249C29.2885 78.7814 37.652 77.55 46.555 74.4643C52.3615 72.4516 57.8995 69.8206 63.0155 66.6436C71.4645 61.3965 77.8925 55.4027 82.122 48.8288C84.657 44.8885 88.4745 37.2133 85.563 30.0852C85.0025 28.7516 84.238 27.5171 83.2915 26.4153C79.4575 21.9532 73.046 19.6123 64.234 19.4564C63.9355 19.4512 63.6365 19.4487 63.3365 19.4487H63.337Z" fill="white"/>
<path id="Vector_34" d="M25.61 78.1961C22.0145 78.1961 18.6415 77.7709 15.553 76.9255C12.389 76.06 9.5815 74.6382 7.4335 72.8144C4.92 70.6804 3.3385 68.0587 2.7335 65.022C2.1015 61.8496 2.493 58.4068 3.897 54.7896C5.022 51.8923 6.791 48.8861 9.155 45.8541C13.939 39.7189 20.4925 34.266 28.6335 29.647C33.9965 26.6042 39.651 24.177 45.4405 22.4326C54.9235 19.5751 63.4895 18.8371 70.8995 20.2388C74.253 20.873 77.2885 22.0157 79.678 23.5427C82.5785 25.396 84.5905 27.8154 85.659 30.7334C86.141 32.0932 86.417 33.5331 86.4785 35.0132C86.7275 41.0174 83.803 47.5004 77.785 54.2838C72.747 59.9623 66.257 64.9431 58.495 69.0882C52.724 72.1703 46.763 74.518 40.778 76.0667C36.321 77.2202 32.088 77.9128 28.1965 78.1249C27.3225 78.1724 26.46 78.1961 25.61 78.1961ZM63.2435 19.5983C57.776 19.5983 51.823 20.5608 45.454 22.4796C39.668 24.2229 34.016 26.6491 28.6565 29.6903C20.521 34.3062 13.972 39.755 9.1915 45.8856C5.4765 50.6496 1.349 57.8345 2.779 65.0132C4.3705 73.0012 12.2505 75.9728 15.5645 76.8796C22.6225 78.8108 31.1015 78.5218 40.767 76.0203C46.7485 74.4726 52.706 72.1259 58.474 69.0454C66.231 64.9033 72.717 59.9257 77.751 54.2513C83.7605 47.4782 86.681 41.006 86.4325 35.0153C86.371 33.5403 86.0965 32.1051 85.616 30.7504C82.988 23.5722 75.263 21.1135 70.8915 20.2868C68.464 19.8275 65.9115 19.5983 63.2435 19.5983Z" fill="white"/>
<path id="Vector_35" d="M23.112 80.4953C17.656 80.4953 10.922 79.3078 6.9125 74.2703C5.0215 71.8947 4.0275 68.9577 3.9575 65.5417C3.899 62.6795 4.51 59.4886 5.725 56.3136C7.0135 52.9462 8.8755 49.5668 11.259 46.2685C13.3335 43.3981 15.864 40.5059 18.7805 37.6726C24.67 31.9513 31.461 27.129 38.9655 23.3404C46.52 19.5261 53.8615 17.2166 60.7855 16.476C64.5165 16.0771 67.9085 16.1488 70.867 16.6902C74.567 17.3673 77.621 18.7865 79.9445 20.9092C80.97 21.8464 81.8355 22.9193 82.516 24.0981C84.061 26.7683 84.658 29.9463 84.2915 33.5445C83.9905 36.4965 83.061 39.6477 81.5285 42.9099C79.968 46.2314 77.882 49.5359 75.329 52.7315C73.0695 55.5601 70.385 58.3759 67.351 61.1013C61.155 66.6668 54.1785 71.2455 46.6155 74.7115C38.8835 78.255 31.502 80.1903 24.6765 80.4638C24.17 80.4839 23.6465 80.4953 23.112 80.4953ZM65.398 16.2649C63.9365 16.2649 62.4005 16.3511 60.79 16.523C53.871 17.263 46.535 19.5715 38.9855 23.3828C31.4855 27.1693 24.6985 31.9885 18.812 37.7067C12.562 43.7779 8.1735 50.0437 5.768 56.3301C4.1825 60.4727 2.228 68.3085 6.948 74.2388C11.3385 79.7547 19.0105 80.6418 24.6735 80.4148C31.4935 80.1412 38.869 78.2075 46.5955 74.6666C54.1545 71.2027 61.127 66.626 67.3195 61.0642C73.779 55.2623 78.545 49.1467 81.486 42.8882C83.4685 38.6682 86.234 30.6183 82.4755 24.1223C81.7975 22.9477 80.9355 21.8784 79.9135 20.9448C76.5065 17.8323 71.636 16.2649 65.398 16.2649Z" fill="white"/>
<path id="Vector_36" d="M23.3575 80.3307C21.8575 80.3307 20.401 80.2393 18.9945 80.0561C15.8105 79.6417 12.9015 78.6539 10.5825 77.1996C7.8565 75.4898 5.963 73.1813 4.9545 70.3382C3.9 67.364 3.801 63.979 4.661 60.2777C5.3505 57.3097 6.65 54.1455 8.524 50.8736C12.0025 44.7982 17.0685 38.9928 23.58 33.6183C30.096 28.2407 37.232 23.9556 44.7905 20.8823C48.5095 19.3702 52.1245 18.2281 55.535 17.4886C59.4285 16.6443 63.186 16.2943 66.704 16.4492C71.12 16.6437 79.0555 17.9639 82.5865 24.6214C83.213 25.8187 83.6655 27.1295 83.931 28.5183C85.0245 34.2371 83.1335 40.8832 78.3105 48.2725C74.4215 54.2307 69.085 59.8343 62.45 64.9266C55.704 70.1039 48.445 74.1206 40.8755 76.8646C37.103 78.2322 33.4765 79.2061 30.0965 79.7599C27.775 80.1402 25.5215 80.3307 23.3575 80.3307ZM65.075 16.4621C58.9105 16.4621 52.1025 17.9608 44.8075 20.9272C37.2535 23.999 30.121 28.2814 23.609 33.6559C17.1015 39.0268 12.0395 44.8281 8.564 50.8983C5.619 56.0416 2.61 63.5863 4.9985 70.3222C6.8565 75.562 11.96 79.0926 19.0005 80.0086C25.3775 80.8385 32.7325 79.7655 40.8605 76.8192C48.4255 74.0767 55.68 70.0626 62.4225 64.8878C69.053 59.7987 74.386 54.1997 78.272 48.2457C83.088 40.8677 84.9765 34.2334 83.8855 28.5276C83.621 27.1435 83.17 25.8368 82.5455 24.6441C79.0255 18.0072 71.108 16.6907 66.7015 16.4967C66.165 16.4729 65.622 16.461 65.075 16.461V16.4621Z" fill="white"/>
<path id="Vector_37" d="M22.36 82.7882C18.077 82.7882 13.547 81.8175 10.196 78.6374C8.01 76.5627 6.6495 73.8017 6.1525 70.4301C5.7375 67.6153 5.9465 64.381 6.756 61.0766C7.583 57.7008 8.943 54.2328 10.7975 50.7683C12.4065 47.7626 14.4435 44.6589 16.852 41.5433C22.1 34.7537 28.5115 28.7511 35.9075 23.7017C42.995 18.8634 50.064 15.5909 56.919 13.9756C64.918 12.0908 71.2605 12.7096 75.771 15.8144C76.9435 16.6215 77.952 17.5861 78.768 18.6812C80.605 21.0955 81.568 24.1424 81.6315 27.738C81.683 30.6658 81.1465 33.881 80.0375 37.2943C78.941 40.6695 77.3525 44.1015 75.3165 47.4948C73.514 50.4989 71.311 53.5546 68.7685 56.5768C65.9565 59.92 62.8465 63.0769 59.5245 65.9597C56.2185 68.8292 52.6735 71.453 48.988 73.7583C41.8655 78.2137 34.911 81.0645 28.3175 82.2329C26.504 82.5544 24.4615 82.7882 22.36 82.7882ZM65.249 12.9584C62.7175 12.9584 59.9415 13.3129 56.93 14.0225C50.0805 15.6368 43.0165 18.9068 35.934 23.742C28.542 28.7882 22.1345 34.7877 16.889 41.5732C11.6615 48.3355 8.362 54.7194 6.8015 61.0884C5.7425 65.4101 4.78 73.4321 10.2275 78.6018C15.2085 83.3291 22.81 83.1598 28.3095 82.1854C34.897 81.0186 41.846 78.1693 48.964 73.7175C56.421 69.0532 63.0725 63.2756 68.7335 56.5453C74.14 50.1175 77.9285 43.6355 79.9935 37.2789C81.4315 32.8534 83.1795 24.5563 78.7315 18.7101C77.9185 17.6191 76.914 16.6582 75.7455 15.8541C72.943 13.9245 69.4295 12.9579 65.2485 12.9579L65.249 12.9584Z" fill="white"/>
<path id="Vector_38" d="M22.506 82.6009C19.5055 82.6009 16.6945 82.0698 14.3415 81.0557C11.3695 79.7743 9.1595 77.7657 7.773 75.0862C6.377 72.3886 5.835 69.1682 6.161 65.5149C6.4225 62.584 7.2395 59.3771 8.5885 55.9818C9.9455 52.5663 11.771 49.1282 14.014 45.7623C16.027 42.7421 18.4295 39.6998 21.156 36.7199C24.0985 33.5037 27.3025 30.4985 30.6785 27.7881C34.088 25.0508 37.7015 22.5916 41.4195 20.4782C44.791 18.562 48.1115 17.0003 51.29 15.8376C54.902 14.5164 58.4505 13.6644 61.8375 13.3057C66.2605 12.8376 74.333 12.9444 78.701 18.913C79.506 20.0034 80.147 21.2508 80.6065 22.6215C82.373 27.8902 81.4835 34.4363 77.963 42.0779C74.9115 48.7014 70.291 55.1638 64.231 61.2856C57.902 67.6788 50.928 72.8557 43.502 76.6731C40.077 78.434 36.75 79.8166 33.614 80.7838C29.9765 81.9047 26.447 82.5142 23.1235 82.5937C22.917 82.5988 22.711 82.6009 22.506 82.6009ZM65.008 13.1839C63.8385 13.1839 62.7615 13.2562 61.842 13.3537C55.4875 14.0261 48.6235 16.4373 41.4415 20.52C33.974 24.7648 27.1605 30.2266 21.1895 36.7525C15.4295 43.0482 11.2045 49.524 8.631 55.9993C6.5145 61.3263 4.654 68.9577 7.8135 75.063C11.435 82.0611 19.7255 82.6272 23.1225 82.5452C29.3715 82.395 36.031 80.4597 43.4815 76.6298C50.903 72.8149 57.873 67.6406 64.1985 61.251C70.255 55.1333 74.872 48.6756 77.921 42.0573C81.4365 34.4275 82.325 27.8939 80.5625 22.6375C80.1045 21.272 79.4655 20.0287 78.664 18.9424C75.2175 14.2316 69.451 13.1839 65.008 13.1839Z" fill="white"/>
<path id="Vector_39" d="M22.952 84.9883C22.6295 84.9883 22.311 84.9811 21.997 84.9666C18.8635 84.8237 16.16 83.9613 13.961 82.4032C11.8155 80.8828 10.231 78.7142 9.252 75.9568C8.4125 73.5931 8.0375 70.7903 8.167 67.8522C8.457 61.2721 10.7305 54.2456 15.1175 46.3717C17.37 42.3287 20.0475 38.392 23.077 34.6711C26.0085 31.0698 29.286 27.6487 32.819 24.5021C39.743 18.3349 46.7975 13.9905 53.785 11.5887C60.822 9.16979 66.6575 9.10321 71.1295 11.3905C72.214 11.9453 73.2215 12.6616 74.123 13.5193C76.033 15.3886 77.337 17.8477 77.999 20.8287C78.5595 23.3528 78.655 26.1923 78.282 29.2692C77.8385 32.9319 76.8205 36.7653 75.257 40.6638C73.9085 44.0256 72.1075 47.5494 69.903 51.1368C67.452 55.1256 64.6145 58.9668 61.468 62.5536C58.367 66.0893 54.9525 69.3943 51.3205 72.3762C44.2615 78.1708 37.2395 82.0461 30.45 83.8937C27.7775 84.6208 25.26 84.9878 22.9515 84.9878L22.952 84.9883ZM63.663 9.77154C60.7075 9.77154 57.413 10.3924 53.7995 11.6346C46.8175 14.0344 39.7685 18.3762 32.849 24.5388C25.586 31.0074 19.634 38.3611 15.158 46.3955C10.775 54.2627 8.5035 61.2819 8.214 67.8543C8.0475 71.6274 8.5765 78.53 13.9875 82.364C19.011 85.9234 25.7065 85.1354 30.4385 83.8477C37.222 82.0017 44.238 78.1295 51.292 72.3391C58.5905 66.3478 65.013 59.007 69.864 51.1115C74.6625 43.3016 77.401 36.1553 78.236 29.2635C78.8115 24.5114 78.5595 17.9283 74.0915 13.555C73.193 12.6998 72.1895 11.9861 71.1085 11.4338C68.942 10.3258 66.4535 9.77206 63.6625 9.77206L63.663 9.77154Z" fill="white"/>
<path id="Vector_40" d="M23.1905 84.7875C21.1165 84.7875 19.1455 84.483 17.4055 83.888C14.752 82.9802 12.636 81.4263 11.1155 79.2685C9.55 77.0473 8.6285 74.2744 8.377 71.0277C8.172 68.3786 8.4095 65.4215 9.0835 62.2388C9.8865 58.4476 11.2355 54.5393 13.094 50.6227C14.7325 47.1696 16.8135 43.6122 19.2795 40.0492C21.9625 36.1729 24.9755 32.4984 28.2345 29.1278C31.528 25.7222 35.087 22.6122 38.813 19.8842C42.127 17.4581 45.4025 15.4505 48.5485 13.9178C52.208 12.1342 55.824 10.9271 59.2955 10.3289C62.2165 9.82573 64.929 9.82263 67.3575 10.3196C70.213 10.9038 72.5885 12.1739 74.4185 14.0943C75.257 15.0005 75.965 16.0182 76.524 17.1196C78.8365 21.6761 78.97 27.7344 76.922 35.1273C74.8895 42.4629 71.011 49.9616 65.395 57.416C62.5605 61.1782 59.4435 64.6995 56.1315 67.8816C52.723 71.1562 49.084 74.0937 45.316 76.6117C42.0065 78.8231 38.7735 80.6057 35.707 81.9098C32.08 83.4524 28.5405 84.3891 25.1875 84.6952C24.5145 84.7566 23.8475 84.787 23.191 84.787L23.1905 84.7875ZM63.4875 10.0095C61.897 10.0095 60.448 10.1798 59.3035 10.3769C52.864 11.486 45.979 14.6981 38.8405 19.924C31.448 25.3356 24.697 32.3048 19.3175 40.0776C14.0655 47.6661 10.6375 55.1256 9.129 62.2496C8.08 67.2025 7.58 74.1706 11.153 79.2407C15.006 84.7075 21.597 84.9749 25.1835 84.6482C31.4355 84.0779 38.0125 81.4361 45.291 76.572C52.793 71.5587 59.5445 65.1041 65.3585 57.3871C70.971 49.9379 74.8465 42.4443 76.8775 35.1149C78.9225 27.7349 78.79 21.6879 76.483 17.1428C75.926 16.0456 75.2205 15.0315 74.385 14.1288C71.2655 10.8543 67.028 10.0095 63.4875 10.0095Z" fill="white"/>
<path id="Vector_41" d="M24.544 86.9432C22.2885 86.9432 20.2235 86.4994 18.3775 85.6153C15.656 84.3117 13.5875 82.074 12.23 78.9646C11.0995 76.3754 10.4885 73.1927 10.4635 69.7607C10.438 66.3086 10.9085 62.6191 11.8625 58.7949C12.684 55.5023 13.895 51.9888 15.4625 48.353C18.7795 40.6582 23.32 33.3778 28.9575 26.7141C34.496 20.167 40.3945 15.0501 46.488 11.5046C49.7025 9.63427 52.7615 8.30587 55.579 7.55703C59.1425 6.6095 62.4195 6.55841 65.32 7.40478C66.688 7.80372 67.951 8.41528 69.0745 9.2214C71.548 11.005 73.293 13.6762 74.2615 17.1603C75.0465 19.9843 75.3105 23.2599 75.047 26.8968C74.7975 30.3396 74.11 33.961 73.005 37.6602C72.029 40.9271 70.6955 44.3564 69.0425 47.8534C65.3375 55.6897 60.462 62.951 54.5525 69.4356C48.872 75.6689 42.9355 80.3869 36.907 83.4592C33.6785 85.1044 30.6135 86.181 27.797 86.6589C26.6735 86.8493 25.5885 86.9443 24.544 86.9443V86.9432ZM60.988 6.85361C56.7275 6.85361 51.8785 8.4225 46.511 11.5458C40.422 15.0888 34.528 20.2027 28.9925 26.7456C23.358 33.4056 18.82 40.6819 15.505 48.3721C12.0955 56.2806 10.4615 63.2766 10.5095 69.7602C10.5365 73.3914 11.3585 82.2009 18.397 85.572C23.274 87.9078 29.4945 87.1822 36.8865 83.4153C42.91 80.3456 48.842 75.6307 54.5185 69.402C60.425 62.9205 65.2975 55.6633 69.0005 47.8318C72.513 40.4032 74.532 33.3582 75.0005 26.8927C75.344 22.1586 75.0265 13.572 69.048 9.26011C67.929 8.45657 66.6705 7.8481 65.3075 7.4502C63.9445 7.05282 62.503 6.85412 60.988 6.85412V6.85361Z" fill="white"/>
<path id="Vector_42" d="M24.5825 86.6842C23.904 86.6842 23.2425 86.6465 22.602 86.5701C19.3195 86.1794 16.633 84.8134 14.6165 82.5106C12.649 80.2636 11.393 77.2816 10.8845 73.6484C10.4815 70.7686 10.5435 67.4683 11.0695 63.8376C11.592 60.2307 12.5475 56.4813 13.91 52.6953C15.1315 49.3 16.7145 45.7803 18.6145 42.2333C22.7615 34.492 27.946 27.5099 34.024 21.481C36.7275 18.7994 39.4675 16.4507 42.1685 14.4999C45.225 12.2926 48.3385 10.5168 51.4215 9.22243C54.63 7.87545 57.802 7.11939 60.5945 7.03682C64.086 6.93308 67.0605 7.84346 69.438 9.7411C70.5045 10.5963 71.4355 11.647 72.2065 12.8639C73.844 15.4495 74.7755 18.673 74.975 22.4445C75.1325 25.4239 74.8345 28.8151 74.0895 32.5231C72.6795 39.5388 69.787 46.8337 65.492 54.2044C61.0695 61.7934 55.7645 68.4726 49.724 74.0561C43.496 79.813 37.578 83.5526 31.632 85.4879C29.2015 86.279 26.801 86.6842 24.5825 86.6842ZM61.1345 7.08791C57.427 7.08791 53.837 8.26045 51.44 9.26733C45.647 11.6996 39.799 15.8206 34.057 21.5161C27.9825 27.5419 22.801 34.5199 18.656 42.257C14.6425 49.7485 12.106 57.0119 11.116 63.8453C9.912 72.1559 11.1015 78.4253 14.651 82.4791C19.8705 88.4399 28.255 86.5376 31.618 85.443C37.558 83.5092 43.47 79.7733 49.693 74.021C55.73 68.4406 61.032 61.765 65.452 54.1801C69.7445 46.814 72.635 39.5243 74.044 32.5139C75.7305 24.1213 75.099 17.519 72.1675 12.8902C71.3995 11.678 70.472 10.6313 69.4095 9.77929C66.9075 7.78204 63.986 7.08791 61.1345 7.08791Z" fill="white"/>
<path id="Vector_43" d="M26.776 88.476C25.397 88.476 24.0735 88.2835 22.811 87.898C19.667 86.9381 17.186 84.7721 15.4365 81.4603C13.637 78.0542 13.028 74.2057 12.834 71.5773C12.585 68.2052 12.75 64.587 13.3245 60.8237C13.829 57.5202 14.666 53.9969 15.813 50.3513C18.1695 42.8598 21.585 35.6202 25.965 28.8331C30.207 22.2598 34.9185 16.7645 39.969 12.4996C43.122 9.83709 46.176 7.80165 49.0465 6.44899C52.7445 4.70669 56.2695 4.02752 59.5235 4.43007C61.012 4.61431 62.414 5.05092 63.691 5.72699C66.621 7.26131 68.7895 9.96766 70.137 13.7712C71.182 16.7211 71.727 20.3833 71.713 24.3607C71.701 27.7473 71.317 31.3294 70.571 35.0065C69.9035 38.2976 68.9265 41.761 67.6675 45.3014C65.03 52.717 61.3905 59.8075 56.8505 66.3752C52.5645 72.5754 47.8465 77.6996 42.827 81.6064C39.5625 84.1471 36.396 86.0112 33.416 87.146C31.09 88.0316 28.8695 88.4755 26.7755 88.4755L26.776 88.476ZM57.6835 4.36607C52.366 4.36607 46.428 7.10751 39.9985 12.5367C34.9515 16.7986 30.243 22.2902 26.0035 28.86C21.626 35.6434 18.2125 42.8789 15.857 50.3662C13.381 58.2371 12.4075 65.1743 12.88 71.5742C13.181 75.6477 14.752 85.3883 22.824 87.8526C28.4965 89.584 35.217 87.4701 42.799 81.5692C47.8145 77.6656 52.5295 72.5445 56.8125 66.3484C61.35 59.7838 64.9875 52.6974 67.624 45.2859C70.284 37.8073 71.644 30.7674 71.6665 24.3613C71.685 18.9919 70.671 9.43712 63.67 5.77086C62.398 5.09685 61.001 4.66231 59.518 4.47858C58.9155 4.40375 58.3035 4.36659 57.6835 4.36659V4.36607Z" fill="white"/>
<path id="Vector_44" d="M26.586 88.2324C23.58 88.2324 20.9695 87.3164 18.8075 85.4997C16.264 83.3626 14.5165 80.2021 13.6145 76.106C12.919 72.9481 12.7235 69.24 13.033 65.084C13.5135 58.6329 15.2055 51.723 18.0615 44.5464C20.983 37.2056 24.815 30.3298 29.452 24.1089C31.6515 21.1579 33.9375 18.4815 36.246 16.154C38.8155 13.5637 41.4985 11.3193 44.221 9.48305C47.524 7.25512 50.73 5.7497 53.749 5.00963C57.5985 4.06623 61.0145 4.42078 63.903 6.06451C65.14 6.77 66.252 7.7134 67.208 8.8684C69.338 11.4406 70.704 14.8581 71.268 19.026C71.7035 22.2443 71.668 25.9967 71.1625 30.1786C70.369 36.7437 68.4165 43.6406 65.3595 50.6774C62.1205 58.1333 58.049 64.941 53.257 70.9116C50.9015 73.8466 48.4895 76.4523 46.0875 78.657C43.3475 81.1724 40.512 83.2667 37.6605 84.882C35.3975 86.1639 31.9165 87.7716 28.1835 88.1493C27.6395 88.2045 27.1065 88.2324 26.586 88.2324ZM57.807 4.55651C52.583 4.55651 47.388 7.40478 44.246 9.52383C39.0885 13.0028 34.1235 17.92 29.4885 24.1383C24.8545 30.3556 21.0245 37.2283 18.1045 44.5649C15.25 51.737 13.5595 58.6422 13.079 65.0881C12.582 71.7585 13.178 80.7079 18.8365 85.4626C25.271 90.8691 34.1285 86.8287 37.638 84.8407C43.0415 81.7798 48.1385 77.2135 53.221 70.8816C58.0105 64.9147 62.08 58.1106 65.317 50.6584C68.372 43.6257 70.323 36.7339 71.116 30.1734C72.272 20.6129 70.945 13.4559 67.172 8.90039C66.219 7.75004 65.1115 6.81025 63.8795 6.10734C61.934 5.00034 59.868 4.55651 57.807 4.55651Z" fill="white"/>
<path id="Vector_45" d="M29.209 89.502C28.4 89.502 27.608 89.4266 26.835 89.2759C24.36 88.7929 22.1705 87.5037 20.327 85.443C18.743 83.6723 17.4315 81.3215 16.5345 78.6441C14.518 72.626 14.1665 65.4106 15.46 56.5856C16.127 52.0348 17.211 47.421 18.682 42.8722C20.1045 38.4741 21.8995 34.1013 24.0175 29.8756C28.2245 21.4825 33.1775 14.6733 38.7395 9.63737C41.2215 7.38982 43.669 5.63771 46.014 4.42904C48.958 2.91176 51.824 2.20524 54.533 2.3291C55.77 2.38535 56.9465 2.61707 58.029 3.01652C60.41 3.87632 62.45 5.54585 64.0925 7.97867C65.4645 10.011 66.5265 12.5104 67.248 15.4072C68.116 18.8913 68.5115 22.7599 68.4235 26.905C68.347 30.4954 67.9265 34.2618 67.1375 38.4184C66.264 43.0198 64.992 47.6315 63.357 52.1251C61.746 56.5526 59.772 60.8939 57.4905 65.0282C55.4025 68.8121 53.166 72.2395 50.843 75.2152C48.2065 78.593 45.3715 81.5016 42.4165 83.8607C39.927 85.8486 37.473 87.3334 35.123 88.2737C33.078 89.0922 31.098 89.503 29.2085 89.503L29.209 89.502ZM53.9225 2.36264C49.2245 2.36264 44.1305 4.8192 38.7705 9.67298C33.213 14.7053 28.263 21.5099 24.059 29.8973C19.707 38.5799 16.829 47.5613 15.5055 56.5928C14.2135 65.4096 14.564 72.6178 16.578 78.6286C17.729 82.0642 20.5935 88.01 26.843 89.229C31.5215 90.1414 36.7515 88.3227 42.388 83.822C47.936 79.3919 53.0035 73.0606 57.45 65.0034C62.096 56.5846 65.3395 47.6372 67.0915 38.4086C68.7905 29.4586 68.827 21.9382 67.2025 15.4185C66.2785 11.7089 63.8555 5.17066 58.013 3.0609C56.935 2.663 55.763 2.43231 54.5305 2.37606C54.3285 2.36677 54.1255 2.36213 53.922 2.36213L53.9225 2.36264Z" fill="white"/>
<path id="Vector_46" d="M29.115 89.2847C27.303 89.2847 25.4325 88.9023 23.627 87.9099C18.4885 85.0853 16.4025 78.7927 15.558 74.0112C14.9075 70.3289 14.7235 66.3086 15.011 62.0623C15.2605 58.3754 15.8755 54.3933 16.8385 50.2269C17.9005 45.6317 19.338 41.0773 21.11 36.69C22.888 32.2888 25.013 28.0306 27.427 24.0346C29.6005 20.4359 31.885 17.2285 34.2165 14.501C36.9175 11.342 39.79 8.69758 42.7545 6.64098C46.6465 3.94134 52.4485 1.15397 57.9875 3.20902C59.0715 3.60898 60.1 4.18442 61.045 4.91932C64.8275 7.86049 67.1505 13.0802 67.949 20.4328C68.3705 24.3164 68.334 28.4879 67.8395 32.8318C67.4015 36.6776 66.592 40.7707 65.433 44.9985C64.19 49.5323 62.6025 53.9742 60.7155 58.2015C58.789 62.517 56.5355 66.64 54.0175 70.4549C49.096 77.9123 44.0175 83.1237 38.4925 86.3869C36.353 87.6508 32.8595 89.2847 29.115 89.2852V89.2847ZM53.951 2.54585C49.7635 2.54585 45.725 4.63806 42.7805 6.68072C37.2015 10.5508 32.192 16.2355 27.4665 24.0604C22.595 32.1263 19.0345 40.9338 16.884 50.2388C14.7945 59.278 14.376 67.0513 15.604 74.0029C16.447 78.7741 18.527 85.0523 23.649 87.8681C25.4465 88.8559 27.3105 89.2372 29.1155 89.2372C32.8505 89.2372 36.3345 87.6064 38.4695 86.3451C43.9885 83.0855 49.0615 77.8792 53.979 70.4275C59.011 62.8029 62.8495 54.2426 65.388 44.985C67.8505 36.0047 68.6965 27.7458 67.903 20.438C67.106 13.0988 64.7895 7.89042 61.017 4.95751C60.0755 4.22571 59.051 3.65234 57.9715 3.25443C56.637 2.75951 55.286 2.54637 53.9505 2.54637L53.951 2.54585Z" fill="white"/>
<path id="Vector_47" d="M31.881 90C28.8695 90 26.1425 88.8238 23.7685 86.4984C21.133 83.9174 19.583 80.5505 18.747 78.1801C16.736 72.481 15.9645 65.8354 16.388 57.8639C16.8285 49.5787 18.5335 41.1634 21.4565 32.8514C24.2565 24.8887 27.8745 17.9979 32.209 12.3711C34.402 9.52434 36.5265 7.27473 38.7035 5.49424C41.4025 3.28694 44.173 1.84294 46.938 1.20299C48.5785 0.823156 50.1985 0.762258 51.753 1.02082C54.7555 1.55961 57.366 3.26733 59.512 6.09548C61.228 8.35696 62.6515 11.3786 63.6285 14.8338C65.35 20.9205 65.829 27.8423 65.0935 35.9938C64.3325 44.4256 62.326 52.8316 59.13 60.9785C56.1205 68.6496 52.385 75.1507 48.027 80.3012C42.7705 86.5133 37.5045 89.7729 32.3745 89.9886C32.209 89.9954 32.044 89.999 31.8805 89.999L31.881 90ZM49.835 0.912955C48.886 0.912955 47.9205 1.02598 46.947 1.25099C41.9415 2.4096 37.132 6.05729 32.2445 12.402C27.913 18.0248 24.298 24.9109 21.4995 32.8689C18.578 41.1763 16.8735 49.5875 16.4335 57.8675C16.01 65.8323 16.781 72.4712 18.79 78.1646C21.4785 85.7841 26.556 90.1879 32.3725 89.9422C37.489 89.727 42.744 86.4731 47.9915 80.2708C52.346 75.1244 56.079 68.6279 59.0865 60.962C62.281 52.8197 64.286 44.4184 65.0465 35.9912C65.7815 27.8459 65.303 20.9303 63.583 14.8493C62.2865 10.2644 59.023 2.3776 51.744 1.07036C51.117 0.966112 50.4795 0.913987 49.8345 0.913987L49.835 0.912955Z" fill="white"/>
<path id="Vector_48" d="M31.8595 89.808C30.3115 89.808 28.825 89.4942 27.411 88.8662C24.738 87.6792 22.4935 85.4703 20.7395 82.3016C19.363 79.814 18.2885 76.7423 17.5465 73.172C16.833 69.739 16.4605 66.0201 16.44 62.1185C16.4215 58.6422 16.682 54.9093 17.2145 51.0232C18.3745 42.5538 20.689 34.3511 24.0935 26.6434C25.651 23.117 27.353 19.8775 29.1515 17.0143C31.183 13.7805 33.4125 10.9074 35.777 8.47514C38.2605 5.92103 40.7745 3.99191 43.2495 2.74195C46.3665 1.16738 49.4 0.689998 52.2665 1.3222C53.7765 1.67159 55.195 2.3327 56.483 3.28797C58.778 4.99002 60.6555 7.51212 62.063 10.7831C63.169 13.3537 64.011 16.4554 64.5655 20.0024C65.629 26.8049 65.457 34.4177 64.0545 42.6296C62.588 51.2162 60.003 59.373 56.3715 66.8727C54.7595 70.202 53.0215 73.235 51.2055 75.8887C49.138 78.9093 46.8905 81.5558 44.525 83.7543C41.9455 86.1521 39.194 87.9336 36.568 88.9064C34.9465 89.5071 33.3735 89.8075 31.8595 89.8075V89.808ZM49.78 1.1008C44.265 1.1008 39.236 4.9864 35.81 8.50971C31.303 13.1447 27.4845 19.0833 24.136 26.664C20.7335 34.3671 18.4205 42.5651 17.261 51.0304C16.12 59.3601 16.2285 66.5992 17.593 73.1627C18.7725 78.8376 21.4365 86.1614 27.43 88.8228C34.245 91.8491 41.0465 86.9247 44.4945 83.7198C48.9835 79.5477 52.855 74.0303 56.3305 66.8521C59.96 59.3564 62.5435 51.2044 64.009 42.6219C65.4105 34.4156 65.5825 26.808 64.52 20.0112C63.264 11.9778 60.551 6.36486 56.456 3.32822C55.173 2.37708 53.7605 1.71804 52.2565 1.37071C51.423 1.18699 50.596 1.10183 49.78 1.10183V1.1008Z" fill="white"/>
</g>
<g id="Group_2">
<path id="Vector_49" d="M39.248 77.2981C38.2305 77.2981 37.2045 77.2212 36.179 77.0669C32.806 76.5591 29.4865 75.226 26.5795 73.2123L26.475 73.1395L26.598 73.1684C33.5385 74.8157 40.8545 75.4562 48.1605 75.0815C53.3505 72.3463 56.878 67.2577 59.178 59.2475C63.5125 44.1515 63.999 29.0545 60.547 16.7371C58.996 11.2021 55.2625 1.88937 47.484 0.424211C47.0535 0.362797 46.624 0.308608 46.1915 0.260612L46.196 0.212616L46.7545 0.263192C46.999 0.292609 47.2415 0.329767 47.482 0.374667C51.5775 0.953713 55.6125 2.11903 59.4955 3.84534C63.656 5.6955 67.585 8.1629 71.174 11.1799C74.7285 14.1675 77.8825 17.6372 80.5495 21.4928C83.2505 25.3981 85.4 29.6269 86.939 34.0616C88.5195 38.616 89.454 43.3712 89.717 48.1951C89.859 50.8013 89.459 53.2919 88.528 55.5973C87.638 57.802 86.24 59.8916 84.374 61.8083C78.551 67.7898 69.7215 71.8844 58.132 73.9781C54.8355 74.5737 51.5 74.9566 48.164 75.1285C47.5885 75.433 46.994 75.707 46.383 75.9511C44.1455 76.8434 41.721 77.2966 39.2465 77.2966L39.248 77.2981ZM26.711 73.2448C32.7795 77.4029 40.118 78.3989 46.3675 75.9073C46.95 75.675 47.513 75.418 48.0585 75.1352C40.8255 75.497 33.5865 74.8637 26.711 73.2448ZM48.1845 0.53104C51.1 1.27369 53.6805 3.19352 55.871 6.25442C58.2985 9.64613 59.778 13.8207 60.592 16.7253C62.411 23.2166 63.153 30.3932 62.7965 38.0561C62.474 44.9912 61.2715 52.1261 59.2225 59.2625C58.044 63.3674 56.5725 66.6368 54.725 69.258C53.665 70.7614 52.459 72.0728 51.1395 73.155C50.249 73.8852 49.2875 74.5283 48.2655 75.0769C51.5665 74.903 54.8635 74.5221 58.1255 73.9327C69.7055 71.8405 78.526 67.7505 84.3425 61.7758C88.1565 57.8582 89.9495 53.2904 89.6715 48.1992C89.4085 43.38 88.475 38.6294 86.896 34.0791C80.806 16.5271 65.4105 3.27455 48.1845 0.53104Z" fill="white"/>
<path id="Vector_50" d="M43.504 75.2446C42.455 75.2446 41.4125 75.225 40.38 75.1863C36.6275 75.0444 32.9805 74.6429 29.5395 73.9926C21.811 72.5326 15.103 69.8355 9.6015 65.9773C7.343 64.3934 4.222 61.733 2.178 58.0538C0.2445 54.5734 -0.281 50.9943 0.616 47.4158C1.4225 44.198 3.272 41.1753 6.112 38.4318C8.387 36.2338 11.3005 34.2082 14.7715 32.4106C20.844 29.2661 27.7445 27.1677 35.282 26.1727C42.2425 25.2541 49.458 25.3031 56.728 26.3188C60.4285 26.8359 69.9045 28.525 77.9615 33.0346C81.7 35.1273 84.6005 37.5477 86.5825 40.2293C88.874 43.3299 89.954 46.8104 89.7925 50.5737C89.6985 52.4554 89.225 54.3298 88.3855 56.1454C85.9195 61.4791 80.6905 65.9799 72.8445 69.5238C66.4655 72.4051 59.1355 74.2192 51.059 74.9164C48.5245 75.1352 45.9945 75.2451 43.5035 75.2451L43.504 75.2446ZM45.2765 25.5612C34.103 25.5612 23.559 27.914 14.793 32.4535C9.3525 35.2708 2.4845 40.1555 0.6615 47.4277C-0.9705 53.936 2.3815 60.8557 9.628 65.9381C23.443 75.627 41.5135 75.6921 51.0555 74.8684C59.1275 74.1717 66.452 72.3587 72.8265 69.4794C80.662 65.9407 85.883 61.4471 88.344 56.1242C89.181 54.3143 89.6525 52.4461 89.7465 50.5711C90.0495 43.5173 86.0775 37.6313 77.94 33.0764C69.89 28.5704 60.4205 26.8828 56.7225 26.3662C52.8655 25.8275 49.035 25.5612 45.2765 25.5612Z" fill="white"/>
<path id="Vector_51" d="M34.575 89.7456C32.5505 89.7456 30.587 89.1562 28.7305 87.9904C24.011 85.027 20.7155 79.2876 18.893 70.8822C11.195 67.9895 5.713 63.9475 2.5505 58.8182C0.456499 55.4218 -0.200001 51.8386 0.598499 48.1667C1.1695 45.5419 2.4635 42.9589 4.4455 40.4894C6.227 38.2697 8.534 36.208 11.117 34.5276C15.443 31.7129 20.4975 29.568 26.57 27.9708L26.6975 27.9372L26.5885 28.0141C15.8225 35.6047 11.8605 51.3933 17.756 63.2106L17.7585 63.2188C18.0355 65.9659 18.427 68.5092 18.9325 70.846C21.282 71.7275 23.8385 72.5022 26.598 73.1684L26.6055 73.172C32.1525 77.0261 38.8595 78.1239 45.0065 76.1834C50.7945 74.3564 55.259 70.0951 57.577 64.186L57.8105 63.5636L57.854 63.5806C55.8405 69.3509 53.4825 74.2006 50.645 78.4077C49.0235 80.8121 45.6315 85.2309 41.134 87.8149C39.09 88.989 37.059 89.6341 35.0985 89.7322C34.9235 89.7409 34.748 89.7451 34.574 89.7451L34.575 89.7456ZM18.945 70.9018C20.766 79.2778 24.052 84.9966 28.7545 87.9496C32.575 90.3484 36.7325 90.289 41.1125 87.7731C45.602 85.1942 48.9885 80.7812 50.608 78.3804C53.2165 74.5133 55.4195 70.1013 57.322 64.9307C56.151 67.6417 54.514 69.9852 52.4485 71.9071C50.3135 73.8935 47.815 75.3473 45.0215 76.2293C42.0645 77.1629 38.849 77.3988 35.722 76.9111C32.4575 76.4022 29.3835 75.1584 26.5845 73.2144C23.8355 72.5507 21.2875 71.7791 18.945 70.9018ZM26.4545 28.0513C20.4435 29.6439 15.434 31.7758 11.142 34.5684C5.562 38.199 1.7355 43.1591 0.643999 48.1775C-0.151501 51.8361 0.502999 55.4074 2.59 58.7924C5.7435 63.9073 11.207 67.9384 18.881 70.8264C18.3785 68.4968 17.9885 65.9639 17.7125 63.2281C14.8195 57.4268 14.156 50.5742 15.845 43.9327C16.6635 40.7139 17.991 37.7062 19.79 34.9931C21.6195 32.2346 23.8615 29.8994 26.4545 28.0513Z" fill="white"/>
<path id="Vector_52" d="M17.7705 63.3453L17.7145 63.2328C14.82 57.4304 14.156 50.5768 15.845 43.9333C16.6555 40.7459 17.9645 37.766 19.7375 35.0736C20.086 33.5594 20.4705 32.0716 20.8895 30.6141C22.3635 25.4863 24.283 20.6836 26.595 16.3398C29.2705 11.3131 32.1975 7.40478 35.296 4.7232C39.359 1.20557 43.7395 -0.215213 48.315 0.499048C53.1475 1.28246 57.86 2.86426 62.3215 5.19955C70.3915 9.4237 77.2385 15.9186 82.1225 23.9814C86.625 31.4146 89.231 39.8046 89.715 48.3731C89.7995 49.1034 89.8255 49.8373 89.7925 50.5732L89.746 50.5722C89.7355 49.8357 89.7095 49.0993 89.6675 48.3669C88.9935 42.5878 84.7795 38.327 82.128 36.1791C66.5635 23.568 42.481 23.9004 26.5845 28.0167C23.8525 29.9437 21.559 32.3982 19.7535 35.182C18.977 38.5768 18.38 42.1089 17.965 45.769C17.283 51.7808 17.2135 57.6523 17.7575 63.2193L17.7705 63.3453ZM19.6895 35.2821C14.459 43.4208 13.3835 54.3355 17.6995 63.0975C17.1685 57.5646 17.242 51.7334 17.919 45.7633C18.3265 42.1698 18.9195 38.6614 19.689 35.2821H19.6895ZM47.008 25.3929C49.855 25.3929 52.665 25.5452 55.393 25.8527C60.5215 26.4313 65.3325 27.5455 69.693 29.1645C74.412 30.9166 78.6055 33.2642 82.157 36.1419C84.52 38.0566 86.3825 40.1787 87.6925 42.4495C88.6905 44.1794 89.338 45.9542 89.629 47.7523C88.394 29.8761 77.8905 13.4037 62.3005 5.2429C57.8435 2.90968 53.1355 1.32994 48.308 0.547044C40.188 -0.720976 32.8955 4.60037 26.635 16.3635C23.655 21.9625 21.3695 28.1932 19.801 34.9771C21.654 32.1877 23.9285 29.8318 26.562 27.9754L26.5695 27.9718C33.143 26.2692 40.1775 25.3929 47.008 25.3929Z" fill="white"/>
<path id="Vector_53" d="M34.6855 89.7306C32.112 89.7306 29.676 88.7991 27.42 86.9474C24.436 84.498 22.5225 81.0604 21.4425 78.6085C18.839 72.6962 17.423 65.7554 17.234 57.9785C17.0735 51.3809 17.7875 44.279 19.3565 36.8701C21.031 28.9627 23.577 21.8515 26.9235 15.7344C31.142 8.02356 35.679 3.25958 40.7935 1.16996C42.4115 0.508853 44.039 0.180107 45.6295 0.193525C48.9005 0.243585 51.8665 1.71236 54.4445 4.5596C57.004 7.3862 58.643 10.9967 59.5675 13.5276C60.7465 16.7557 61.6105 20.3363 62.136 24.1693C62.599 27.5496 62.813 31.2376 62.772 35.1309C62.6075 50.6583 58.7035 65.4044 51.779 76.6525C49.7525 79.9446 47.6375 82.6473 45.4925 84.6864C42.721 87.3215 39.8045 88.9487 36.8245 89.5226C36.102 89.662 35.389 89.7311 34.686 89.7311L34.6855 89.7306ZM45.538 0.239973C43.982 0.239973 42.392 0.567171 40.81 1.21331C35.706 3.29881 31.1765 8.05556 26.9635 15.7566C23.619 21.8696 21.075 28.9761 19.4015 36.8794C16.9895 48.2709 15.393 64.7542 21.4845 78.5878C22.8025 81.5806 27.803 91.2107 36.815 89.4746C42.095 88.4574 47.116 84.1342 51.7385 76.6257C58.6585 65.3853 62.56 50.6485 62.7245 35.1294C62.813 26.7445 61.766 19.6835 59.5235 13.5436C57.728 8.62738 53.535 0.361253 45.6285 0.240489C45.5985 0.240489 45.568 0.239973 45.538 0.239973Z" fill="white"/>
<path id="Vector_54" d="M89.7465 50.5727L89.7225 49.3852L89.6715 48.1987L89.593 47.0138L89.4875 45.8309L89.355 44.6501L89.195 43.4729L89.008 42.2998L88.7945 41.1314L88.554 39.9682L88.287 38.8111L87.9935 37.6602L87.674 36.5166L87.329 35.3807L86.958 34.2536L86.5615 33.1352L86.14 32.0272L85.6935 30.9289L85.2225 29.8416L84.7275 28.766L84.2085 27.7029L83.666 26.6522L83.1005 25.6148L82.512 24.5909L81.9015 23.582L81.2685 22.588L80.6145 21.6095L79.9395 20.647L79.2435 19.701L78.5275 18.7726L77.792 17.8612L77.037 16.9683L76.2635 16.0941L75.472 15.2389L74.663 14.4029L73.8365 13.5875L72.994 12.7922L72.135 12.0175L71.261 11.2641L70.372 10.5328L69.4685 9.82315L68.552 9.13572L67.622 8.47152L66.6795 7.83055L65.7255 7.21228L64.76 6.61826L63.784 6.04851L62.798 5.50301L61.803 4.98176L60.799 4.4858L59.787 4.01462L58.7675 3.56924L57.741 3.14914L56.709 2.75434L55.671 2.38637L54.6285 2.04421L53.582 1.72785L52.5315 1.43832L51.4785 1.17564L50.423 0.939269L49.366 0.729222L48.308 0.546528L47.2495 0.390671L46.1915 0.261649L46.197 0.213654L47.2555 0.342675L48.315 0.499048L49.374 0.682258L50.432 0.891789L51.4885 1.12867L52.543 1.39187L53.5945 1.68191L54.642 1.99827L55.686 2.34044L56.7245 2.70944L57.758 3.10424L58.785 3.52434L59.8055 3.97075L60.8185 4.44194L61.8235 4.93841L62.8195 5.46017L63.8065 6.00619L64.7835 6.57698L65.7495 7.17151L66.705 7.78978L67.648 8.43178L68.579 9.0965L69.4965 9.78444L70.4005 10.4946L71.2905 11.2269L72.1655 11.9809L73.025 12.7561L73.8685 13.5524L74.6955 14.3688L75.5055 15.2054L76.2975 16.0611L77.072 16.9363L77.8275 17.8302L78.5635 18.7421L79.2805 19.6716L79.977 20.6186L80.6525 21.5816L81.3075 22.5611L81.9405 23.5562L82.552 24.5661L83.141 25.5906L83.707 26.6289L84.25 27.6807L84.7695 28.7449L85.265 29.8214L85.7365 30.9099L86.183 32.0086L86.605 33.1182L87.002 34.2376L87.373 35.3657L87.719 36.5027L88.0385 37.6473L88.332 38.7992L88.5995 39.9578L88.84 41.1221L89.054 42.2916L89.241 43.4657L89.401 44.6444L89.534 45.8257L89.6395 47.0096L89.718 48.1961L89.769 49.3836L89.793 50.5716L89.7465 50.5727Z" fill="white"/>
<path id="Vector_55" d="M74.5195 68.7254L74.478 68.7038C76.3705 64.8651 77.615 60.7648 78.1765 56.5159C79.1815 48.915 78.002 41.0509 74.766 33.7751C71.5765 26.6042 66.5565 20.3554 60.2485 15.7044L60.2755 15.6652C66.59 20.3208 71.6155 26.5763 74.8085 33.755C76.3935 37.3186 77.494 41.0654 78.08 44.8921C78.6785 48.8009 78.7265 52.7139 78.223 56.5221C77.6605 60.7762 76.414 64.8816 74.5195 68.7254Z" fill="white"/>
<path id="Vector_56" d="M50.567 74.9566L50.5495 74.9123C53.122 73.8213 55.4505 72.273 57.4705 70.3103C64.8905 63.1017 66.887 51.0764 62.557 39.6745L62.6005 39.657C63.5855 42.2508 64.257 44.951 64.596 47.6826C64.9435 50.4793 64.9335 53.2434 64.5665 55.8971C63.774 61.6298 61.331 66.626 57.5025 70.3454C55.478 72.3122 53.145 73.8636 50.5675 74.9572L50.567 74.9566Z" fill="white"/>
<path id="Vector_57" d="M39.082 77.5242C37.2535 77.5242 35.4005 77.277 33.5715 76.7779C30.877 76.0425 28.3015 74.7874 25.9165 73.0477L25.9435 73.0084C28.324 74.7451 30.8945 75.9976 33.5835 76.7315C38.451 78.0599 43.492 77.6005 47.7785 75.4387C52.1285 73.2448 55.608 69.2617 57.577 64.2236L57.62 64.2417C55.6465 69.2906 52.159 73.2825 47.7985 75.4815C45.113 76.8362 42.1315 77.5242 39.082 77.5242Z" fill="white"/>
<path id="Vector_58" d="M34.708 87.6477C31.6385 87.6477 28.564 87.079 25.564 85.9554C19.3615 83.6331 13.727 79.0193 9.6985 72.9651C7.388 69.4934 5.642 65.6212 4.508 61.4564L4.553 61.4435C5.6855 65.6031 7.4295 69.4707 9.737 72.9382C13.7605 78.9847 19.387 83.5913 25.58 85.9105C32.015 88.3201 38.7255 88.1602 44.475 85.4595L44.4945 85.5033C41.576 86.8741 38.41 87.595 35.084 87.6451C34.959 87.6472 34.833 87.6477 34.708 87.6477Z" fill="white"/>
<path id="Vector_59" d="M24.921 84.4944C21.991 83.5138 19.198 81.9486 16.621 79.8424C14.1935 77.8591 12.0225 75.4531 10.168 72.6921C8.146 69.6812 6.5585 66.3391 5.451 62.7579C4.359 59.2284 3.7595 55.5565 3.669 51.8438C3.566 47.6207 4.131 43.3877 5.348 39.2632L5.3925 39.2771C4.177 43.397 3.6125 47.6248 3.7155 51.8428C3.8975 59.3095 6.2025 66.7044 10.2065 72.6652C14.0365 78.3674 19.267 82.5524 24.9355 84.449L24.921 84.4949V84.4944Z" fill="white"/>
<path id="Vector_60" d="M17.66 62.6454C15.639 58.3361 14.8055 53.4282 15.2505 48.4526C15.486 45.8211 16.079 43.235 17.013 40.7676C17.954 38.2816 19.2215 35.9695 20.78 33.8944C22.56 31.5245 24.703 29.4824 27.149 27.8257L27.1745 27.866C24.7325 29.52 22.5935 31.5581 20.8165 33.9238C17.6825 38.0968 15.7735 43.122 15.2965 48.4567C14.8525 53.4235 15.684 58.3227 17.7015 62.6243L17.66 62.6454Z" fill="white"/>
<path id="Vector_61" d="M19.1795 37.956L19.1385 37.9332C21.485 33.464 25.0055 29.7652 29.319 27.2369C33.668 24.6879 38.5515 23.4932 43.442 23.7822C46.36 23.9546 49.194 24.6332 51.865 25.7986L51.847 25.8429C49.181 24.6797 46.3525 24.0026 43.4395 23.8302C33.5155 23.2429 23.9925 28.7882 19.1795 37.956Z" fill="white"/>
<path id="Vector_62" d="M75.6605 32.0365C73.6315 28.1498 71.0375 24.675 67.951 21.7091C62.5685 16.5374 55.6635 12.9713 48.508 11.6687C41.4075 10.3759 34.2635 11.2475 27.848 14.1897L27.829 14.1459C31.027 12.6792 34.445 11.7203 37.9885 11.2955C41.4855 10.8765 45.0275 10.9859 48.516 11.6212C52.117 12.2766 55.6275 13.4811 58.9495 15.2007C62.252 16.91 65.2915 19.0879 67.9825 21.674C71.073 24.6435 73.67 28.122 75.7015 32.0137L75.6605 32.0365Z" fill="white"/>
<path id="Vector_63" d="M36.238 75.322C27.9015 75.322 20.519 73.9916 14.2895 71.3662C9.438 69.3215 3.2165 65.536 1.1285 59.1108C0.153 56.1087 0.2435 52.9379 1.3975 49.6866C2.3705 46.9451 4.1165 44.1665 6.4465 41.6506C8.767 39.145 11.6005 36.8397 14.869 34.7975C17.709 33.0232 20.963 31.3955 24.5405 29.9597C28.535 28.3563 32.7635 27.0805 37.1075 26.167C41.3335 25.2783 45.707 24.7251 50.106 24.5218C58.7045 24.1244 66.4905 25.1385 73.2465 27.5347C80.2185 30.0077 85.0305 33.5754 87.548 38.1386C88.457 39.7865 89.025 41.5365 89.235 43.3392C89.599 46.3232 88.9785 49.3903 87.3905 52.4553C86.077 54.9904 84.1425 57.4655 81.641 59.8127C79.0515 62.2424 75.9825 64.4512 72.5195 66.3793C69.464 68.0803 66.0205 69.6069 62.2845 70.9167C58.1935 72.3509 53.9225 73.4528 49.59 74.1913C45.2915 74.9241 40.9045 75.3045 36.5505 75.322C36.446 75.322 36.341 75.3225 36.237 75.3225L36.238 75.322ZM53.694 24.4856C52.5155 24.4856 51.3205 24.5135 50.109 24.5697C41.103 24.9857 32.5065 26.8142 24.558 30.0046C16.8895 33.0826 10.8075 37.012 6.481 41.6836C1.322 47.2542 -0.613 53.6005 1.173 59.0958C3.2555 65.5035 9.465 69.2813 14.3075 71.3219C20.6095 73.9776 28.0955 75.3081 36.552 75.2735C45.3845 75.2384 54.038 73.7567 62.271 70.8708C70.2335 68.0793 76.7405 64.347 81.6115 59.777C84.823 56.7641 90.0785 50.6222 89.1905 43.3454C88.981 41.5489 88.415 39.8051 87.509 38.1629C84.997 33.61 80.194 30.0495 73.233 27.5806C67.4345 25.524 60.8755 24.4867 53.6945 24.4867L53.694 24.4856Z" fill="white"/>
<path id="Vector_64" d="M29.7575 76.4125C24.5925 76.4125 19.8585 75.7452 15.611 74.4132C10.9345 72.947 4.8305 69.9584 2.311 64.0471C1.2405 61.5364 0.968 58.766 1.501 55.8125C1.9595 53.2713 3.035 50.5949 4.6115 48.0738C6.4875 45.0728 8.9835 42.2002 12.0285 39.5357C14.6305 37.2592 17.717 35.0633 21.2025 33.0098C25.1065 30.7096 29.3155 28.7309 33.7125 27.1285C37.988 25.5704 42.463 24.3602 47.013 23.5314C56.004 21.8933 64.1985 21.9377 71.369 23.6635C74.568 24.4335 77.381 25.508 79.73 26.857C82.5935 28.5013 84.786 30.5677 86.2465 32.9984C86.8935 34.075 87.3985 35.262 87.7475 36.5259C88.4445 39.2069 88.3375 42.0733 87.43 45.0454C86.657 47.5768 85.326 50.135 83.474 52.6494C81.294 55.6091 78.5345 58.412 75.2725 60.9806C72.4395 63.2111 69.146 65.3286 65.4835 67.2732C61.419 69.4314 57.1005 71.2486 52.648 72.675C48.2365 74.0881 43.681 75.1213 39.1085 75.7457C35.856 76.1901 32.735 76.4125 29.7575 76.4125ZM59.5525 22.3836C55.5815 22.3836 51.396 22.782 47.021 23.5789C37.686 25.2794 29.007 28.4667 21.2255 33.0516C13.5905 37.5503 8.1685 42.4722 4.65 48.0996C2.632 51.3272 -0.3495 57.6879 2.353 64.0275C4.866 69.9222 10.957 72.9037 15.624 74.3673C22.3145 76.4652 30.2135 76.9131 39.102 75.6988C48.2735 74.4462 57.3885 71.518 65.462 67.2314C73.3225 63.0578 79.37 58.1421 83.437 52.621C86.285 48.7545 89.3365 42.8257 87.703 36.5398C87.3555 35.2801 86.852 34.0972 86.207 33.0243C83.5315 28.572 78.5355 25.4383 71.358 23.711C67.682 22.8264 63.736 22.3836 59.552 22.3836H59.5525Z" fill="white"/>
<path id="Vector_65" d="M25.7365 78.1626C24.292 78.1626 22.875 78.0986 21.483 77.9701C15.757 77.4411 8.149 75.5228 4.4235 69.3865C2.8245 66.753 2.2065 63.6745 2.5875 60.2374C2.906 57.3618 3.9425 54.2518 5.584 51.2441C9.254 44.52 15.3295 38.2904 23.6415 32.7285C28.816 29.2661 34.46 26.373 40.416 24.1295C48.4285 21.112 56.1365 19.5844 63.3425 19.5844C63.6455 19.5844 63.9465 19.587 64.2475 19.5926C68.0815 19.6613 71.5145 20.1614 74.45 21.0795C78.133 22.2309 81.0655 24.0521 83.167 26.4927C84.111 27.5889 84.873 28.8182 85.4315 30.1466C86.614 33.0418 86.799 36.2906 85.9805 39.8025C85.3045 42.7034 83.9715 45.7137 82.0185 48.7499C77.778 55.3413 71.3305 61.3413 62.855 66.5837C57.754 69.7385 52.2475 72.3489 46.488 74.342C39.1455 76.8827 32.185 78.1631 25.736 78.1631L25.7365 78.1626ZM63.3425 19.6324C56.142 19.6324 48.4395 21.159 40.432 24.175C34.479 26.4168 28.8385 29.3084 23.6665 32.7688C15.361 38.3265 9.2905 44.5505 5.624 51.2673C1.9695 57.963 1.546 64.5575 4.4625 69.3607C8.178 75.48 15.771 77.3941 21.487 77.9221C29.086 78.6239 37.4925 77.4039 46.473 74.2961C52.2295 72.304 57.733 69.6952 62.831 66.5419C71.3005 61.3031 77.7435 55.3078 81.9795 48.7225C84.4895 44.8204 88.27 37.2205 85.3885 30.1646C84.832 28.8409 84.0725 27.6162 83.132 26.5237C79.334 22.1127 72.98 19.7965 64.2465 19.6401C63.946 19.635 63.6445 19.6319 63.342 19.6319L63.3425 19.6324Z" fill="white"/>
<path id="Vector_66" d="M23.1085 80.3141C17.682 80.3141 11.0595 79.1302 7.09 74.1815C5.214 71.8431 4.2225 68.9484 4.143 65.5773C4.0765 62.7559 4.6695 59.6042 5.858 56.4633C7.128 53.1077 8.976 49.7356 11.3515 46.4404C13.4125 43.5813 15.9315 40.6964 18.839 37.8656C24.7055 32.1541 31.479 27.3355 38.971 23.5427C46.532 19.7155 53.8745 17.3988 60.795 16.6571C64.4975 16.2603 67.8615 16.3294 70.7925 16.8625C74.4635 17.5304 77.4935 18.9346 79.7985 21.0361C80.819 21.9666 81.6785 23.0313 82.352 24.1997C83.8865 26.8519 84.476 30.0098 84.105 33.5863C83.801 36.5166 82.8715 39.6456 81.343 42.8866C79.793 46.1731 77.7235 49.445 75.192 52.6102C72.9585 55.4032 70.3005 58.1942 67.292 60.9057C64.2265 63.6683 60.9055 66.2286 57.421 68.5164C53.959 70.7893 50.306 72.8128 46.564 74.5293C38.935 78.0294 31.6435 79.9611 24.892 80.2708C24.3165 80.2971 23.7195 80.312 23.108 80.312L23.1085 80.3141ZM65.3885 16.4481C63.9335 16.4481 62.404 16.5338 60.8 16.7057C53.885 17.4468 46.5475 19.7619 38.9915 23.5866C31.5035 27.3773 24.734 32.1934 18.871 37.9013C12.6325 43.9751 8.2685 50.2259 5.9015 56.4808C4.351 60.5775 2.449 68.3198 7.126 74.1505C11.084 79.0848 17.693 80.2656 23.1085 80.2656C23.72 80.2656 24.315 80.2506 24.8905 80.2243C31.6365 79.9152 38.9225 77.9845 46.546 74.487C54.125 71.0096 61.095 66.4283 67.262 60.8706C73.665 55.1003 78.3885 49.043 81.3015 42.8665C83.28 38.6718 86.042 30.6714 82.3125 24.225C81.641 23.0607 80.785 22.0002 79.768 21.0728C76.3945 17.9969 71.5695 16.4481 65.3885 16.4481Z" fill="white"/>
<path id="Vector_67" d="M22.377 82.6061C18.132 82.6061 13.65 81.6446 10.3355 78.5016C8.1635 76.4425 6.8145 73.699 6.3265 70.347C5.919 67.5503 6.1325 64.3382 6.943 61.0564C7.7745 57.6895 9.1375 54.2312 10.9935 50.7776C12.604 47.7812 14.641 44.6878 17.049 41.582C22.2745 34.8419 28.6475 28.8816 35.991 23.8663C43.045 19.0487 50.08 15.785 56.9005 14.1655C64.855 12.2771 71.161 12.881 75.6445 15.9609C76.8095 16.7614 77.8105 17.7182 78.62 18.8046C80.452 21.2126 81.406 24.2549 81.455 27.8469C81.4945 30.7648 80.947 33.9713 79.827 37.3764C78.7225 40.7346 77.129 44.149 75.091 47.5242C73.291 50.5051 71.09 53.5453 68.5485 56.5598C65.7605 59.8668 62.6725 62.9943 59.3705 65.855C56.094 68.6934 52.578 71.295 48.919 73.5875C41.835 78.0258 34.915 80.871 28.3505 82.044C26.533 82.3687 24.4845 82.6055 22.3775 82.6055L22.377 82.6061ZM65.23 13.14C62.7 13.14 59.9235 13.4972 56.91 14.213C50.095 15.8309 43.0655 19.0925 36.016 23.9071C28.677 28.9193 22.3075 34.8765 17.085 41.6124C11.86 48.352 8.557 54.7158 6.988 61.0688C5.1825 68.3776 6.4145 74.7187 10.367 78.4665C15.3125 83.1557 22.8715 82.9745 28.342 81.9971C34.901 80.825 41.8155 77.9819 48.8945 73.5467C56.308 68.9019 62.9085 63.176 68.5125 56.5288C73.915 50.1206 77.7065 43.6716 79.782 37.3614C81.2355 32.9412 83.013 24.657 78.5825 18.834C77.776 17.7518 76.7785 16.7986 75.618 16.0012C72.843 14.0948 69.3665 13.1395 65.2305 13.1395L65.23 13.14Z" fill="white"/>
<path id="Vector_68" d="M22.976 84.8056C22.6705 84.8056 22.3685 84.7989 22.0705 84.786C18.9545 84.6497 16.267 83.7972 14.082 82.2505C11.9505 80.742 10.3785 78.5868 9.4105 75.8453C8.5815 73.4977 8.2135 70.7134 8.347 67.7939C8.646 61.2515 10.9175 54.2622 15.29 46.4265C17.5355 42.4025 20.2035 38.4844 23.2205 34.78C26.14 31.1947 29.403 27.7881 32.9195 24.6539C39.817 18.5068 46.8355 14.1753 53.78 11.7796C60.7815 9.36436 66.5815 9.28797 71.0205 11.5526C72.0975 12.1022 73.0975 12.8128 73.9925 13.6644C75.8895 15.5207 77.182 17.9654 77.835 20.9298C78.387 23.4364 78.4765 26.2579 78.1015 29.3157C77.6545 32.9592 76.636 36.7736 75.0755 40.652C73.7305 43.9952 71.9345 47.5004 69.738 51.0702C67.295 55.0404 64.468 58.8641 61.3355 62.4354C58.2475 65.9556 54.8485 69.2472 51.233 72.2183C47.9465 74.9184 44.643 77.2223 41.413 79.0657C37.741 81.161 34.059 82.7222 30.4695 83.7048C27.7965 84.4366 25.2805 84.8061 22.976 84.8061V84.8056ZM63.64 9.95682C60.693 9.95682 57.4045 10.5792 53.7945 11.8245C46.856 14.2181 39.8425 18.5465 32.95 24.69C25.721 31.1323 19.793 38.4535 15.3305 46.4502C10.9615 54.2792 8.692 61.2613 8.3935 67.796C8.222 71.5474 8.7365 78.4087 14.1085 82.2113C19.0955 85.7413 25.752 84.9465 30.4575 83.6578C37.203 81.8108 44.183 77.9494 51.2035 72.1801C58.4675 66.2111 64.863 58.9023 69.698 51.0439C74.4805 43.2716 77.214 36.162 78.055 29.309C78.635 24.5837 78.3945 18.0392 73.9605 13.6989C73.069 12.8505 72.0725 12.143 70.9995 11.5954C68.859 10.5034 66.399 9.95734 63.64 9.95734V9.95682Z" fill="white"/>
<path id="Vector_69" d="M24.574 86.7579C22.3435 86.7579 20.302 86.3198 18.4755 85.4466C15.7755 84.1553 13.7245 81.9351 12.3795 78.8469C11.259 76.2747 10.6565 73.1163 10.6375 69.7137C10.6015 63.2415 12.2365 56.2661 15.637 48.3881C18.9415 40.7325 23.4635 33.4836 29.0785 26.8436C34.584 20.3322 40.4435 15.2379 46.4945 11.7017C49.6935 9.83244 52.7355 8.503 55.537 7.75107C59.0855 6.79838 62.3485 6.74057 65.235 7.57921C66.5935 7.97402 67.8475 8.5799 68.9625 9.37983C71.3965 11.1397 73.1185 13.7666 74.0805 17.1887C74.861 19.9663 75.131 23.1903 74.8825 26.7703C74.6415 30.2426 73.952 33.898 72.8335 37.6349C71.8465 40.9312 70.4955 44.39 68.8175 47.9148C65.118 55.6871 60.281 62.8803 54.441 69.2942C48.797 75.4929 42.8995 80.1908 36.9125 83.2579C33.7 84.9037 30.6515 85.9823 27.852 86.4648C26.7195 86.6599 25.6255 86.7574 24.5735 86.7574L24.574 86.7579ZM60.9595 7.03939C56.713 7.03939 51.876 8.61241 46.518 11.744C40.472 15.2776 34.6165 20.3683 29.114 26.8756C23.5025 33.5119 18.9825 40.7562 15.68 48.4077C12.2825 56.2795 10.6485 63.2487 10.6845 69.7137C10.7045 73.3176 11.506 82.06 18.495 85.4027C23.3425 87.7215 29.532 86.985 36.892 83.215C42.8745 80.1505 48.7675 75.4562 54.4075 69.2616C60.2445 62.8508 65.079 55.6618 68.776 47.8942C72.345 40.396 74.384 33.288 74.8365 26.7672C75.1595 22.1153 74.821 13.6747 68.9365 9.41957C67.826 8.62222 66.5765 8.01892 65.223 7.62566C63.8775 7.23447 62.455 7.03939 60.9595 7.03939Z" fill="white"/>
<path id="Vector_70" d="M26.807 88.2887C25.444 88.2887 24.1355 88.0987 22.8875 87.7184C19.764 86.7667 17.3015 84.6131 15.569 81.3163C13.7895 77.9314 13.1905 74.1051 13.0015 71.4916C12.7585 68.1355 12.9275 64.5343 13.504 60.7886C14.0095 57.5027 14.8455 53.9959 15.9895 50.3668C18.34 42.9093 21.742 35.7012 26.101 28.942C30.3225 22.3955 35.0095 16.9209 40.031 12.6704C43.2095 9.98004 46.159 8.00705 49.048 6.63942C52.724 4.89919 56.228 4.21795 59.462 4.61431C60.94 4.79545 62.332 5.22793 63.599 5.89936C66.5095 7.42336 68.6605 10.1158 69.993 13.9018C71.0245 16.8331 71.5595 20.4736 71.5405 24.4294C71.524 27.7999 71.1375 31.365 70.3915 35.0256C69.7245 38.3002 68.7495 41.7471 67.494 45.272C64.8645 52.654 61.2405 59.7141 56.7225 66.256C52.458 72.4309 47.765 77.5366 42.7745 81.4304C39.53 83.9623 36.3855 85.8202 33.428 86.9535C31.108 87.8422 28.8935 88.2876 26.807 88.2876V88.2887ZM57.656 4.55393C52.37 4.55393 46.462 7.28969 40.0605 12.7081C35.0425 16.9554 30.359 22.4265 26.1395 28.9689C21.783 35.7244 18.383 42.9289 16.0335 50.3822C13.564 58.2174 12.587 65.1216 13.0475 71.4885C13.3405 75.5414 14.8875 85.2314 22.9005 87.6725C24.164 88.0574 25.481 88.2494 26.848 88.2494C31.572 88.2494 36.9 85.9549 42.746 81.3927C47.7325 77.5015 52.422 72.3994 56.684 66.2286C61.1995 59.6898 64.822 52.6339 67.45 45.256C70.102 37.8104 71.4625 30.8035 71.4935 24.4299C71.5195 19.0874 70.5255 9.58162 63.5775 5.94322C62.3155 5.27438 60.9285 4.84396 59.456 4.66334C58.8645 4.59057 58.264 4.55444 57.6555 4.55444L57.656 4.55393Z" fill="white"/>
<path id="Vector_71" d="M29.2385 89.3131C28.4395 89.3131 27.657 89.2388 26.893 89.0901C24.435 88.6117 22.2615 87.3293 20.433 85.2778C18.864 83.5175 17.5655 81.1796 16.6785 78.5171C14.6835 72.529 14.3425 65.3471 15.6365 56.5618C16.3035 52.0311 17.385 47.4375 18.851 42.9083C20.268 38.5293 22.055 34.1756 24.1625 29.967C28.348 21.609 33.273 14.8261 38.8005 9.80766C41.2665 7.56837 43.6965 5.82245 46.023 4.61791C48.948 3.10372 51.7965 2.39668 54.4875 2.51745C55.7155 2.57267 56.883 2.80129 57.9575 3.19816C60.3225 4.05228 62.347 5.71356 63.975 8.13503C65.3335 10.1555 66.3835 12.641 67.0965 15.5223C67.955 18.9914 68.343 22.8419 68.251 26.968C68.171 30.5403 67.749 34.2881 66.961 38.4266C66.0885 43.0079 64.8205 47.5995 63.1925 52.0734C61.588 56.4818 59.624 60.8051 57.354 64.9229C55.277 68.6914 53.053 72.1048 50.745 75.0676C48.124 78.4325 45.3055 81.3313 42.368 83.6836C39.895 85.6638 37.459 87.144 35.127 88.0822C33.0905 88.9018 31.1185 89.3131 29.2375 89.3131H29.2385ZM53.8955 2.55254C49.228 2.55254 44.1635 5.00291 38.8315 9.84379C33.3085 14.8586 28.387 21.6363 24.204 29.9892C19.8735 38.6367 17.0065 47.5794 15.683 56.5691C14.3905 65.3466 14.7305 72.5207 16.723 78.5016C17.862 81.9202 20.699 87.8355 26.902 89.0427C27.6745 89.1928 28.463 89.2682 29.2655 89.2682C33.286 89.2682 37.6715 87.3845 42.3405 83.6454C47.8535 79.2309 52.8915 72.9233 57.3145 64.8992C61.936 56.5144 65.1665 47.6047 66.916 38.4178C68.613 29.5076 68.657 22.0224 67.052 15.5347C66.1385 11.8431 63.741 5.33785 57.943 3.2441C56.873 2.84877 55.71 2.62118 54.4865 2.56596C54.2905 2.55719 54.093 2.55254 53.8955 2.55254Z" fill="white"/>
<path id="Vector_72" d="M31.907 89.8095C28.918 89.8095 26.2125 88.6385 23.859 86.3234C21.2475 83.7554 19.7135 80.406 18.8865 78.049C16.895 72.3736 16.1345 65.7579 16.561 57.8237C17.0045 49.5751 18.7035 41.1954 21.6115 32.9184C24.397 24.9893 27.993 18.1269 32.2995 12.5223C37.1625 6.19352 41.947 2.55409 46.927 1.39548C48.5555 1.01667 50.1635 0.954744 51.7065 1.21175C58.952 2.49938 62.195 10.3764 63.483 14.9572C65.187 21.016 65.657 27.9073 64.9205 36.0232C64.1585 44.4184 62.1605 52.7887 58.982 60.9016C55.989 68.5407 52.276 75.0155 47.9465 80.1453C42.7245 86.3332 37.495 89.5809 32.4035 89.7987C32.237 89.8059 32.0715 89.8095 31.907 89.8095ZM49.81 1.10389C48.866 1.10389 47.905 1.21691 46.937 1.44193C41.968 2.59796 37.1915 6.23222 32.3355 12.5517C28.032 18.1522 24.4385 25.01 21.655 32.9344C18.749 41.2073 17.0505 49.5818 16.6075 57.8262C16.1815 65.7543 16.941 72.3638 18.93 78.0325C21.5915 85.6169 26.626 89.9958 32.4015 89.7512C37.48 89.534 42.698 86.2919 47.9115 80.1144C52.2375 74.9881 55.9475 68.5185 58.9385 60.884C62.1155 52.7753 64.1125 44.4096 64.874 36.0191C65.61 27.9088 65.1405 21.0237 63.438 14.9706C62.153 10.4006 58.918 2.54325 51.6985 1.25923C51.0785 1.15602 50.448 1.10441 49.81 1.10441V1.10389Z" fill="white"/>
</g>
</g>
<defs>
<clipPath id="clip0_16_105">
<rect width="90" height="90" fill="white"/>
</clipPath>
</defs>
</svg>
