<svg width="248" height="113" viewBox="0 0 248 113" fill="none" xmlns="http://www.w3.org/2000/svg">
<g id="Wireframe M 1" clip-path="url(#clip0_16_181)">
<path id="Vector" d="M211.985 113H211.95C208.341 112.956 204.324 112.339 200.932 111.306C198.235 110.484 194.727 109.032 193.331 106.781C191.951 104.22 193.935 101.56 195.854 98.9879C197.976 96.1445 199.979 93.4585 197.812 90.9108C184.524 81.7332 161.923 84.0853 145.413 90.487L145.383 90.4949C134.82 92.2904 126.626 93.1905 120.335 93.2477C114.514 93.2994 110.429 92.6251 107.848 91.1843C105.101 89.6505 104.076 87.2841 104.622 83.7378C105.107 80.5802 106.782 76.8502 108.555 72.9015C111.068 67.3029 113.668 61.5142 113.614 56.1016C113.552 49.9281 109.905 45.4133 102.465 42.2995C89.0375 35.497 72.1308 38.8485 57.2122 41.8057C56.307 41.9854 55.4087 42.1635 54.5187 42.3376L54.5021 42.34C47.5871 43.0604 39.7957 43.1097 31.9672 42.4831C24.45 41.8812 16.8971 40.6623 10.1267 38.9567L10.0977 38.9495L10.0798 38.9352C6.28955 35.8206 3.26946 32.0739 1.57893 28.386C-0.316892 24.2528 -0.50978 20.32 1.02093 17.0122L1.23449 17.0448C-2.32569 24.7394 3.85915 33.5942 10.2424 38.8477C24.2751 42.3782 40.7988 43.6377 54.4539 42.216C55.3412 42.0418 56.2368 41.8645 57.1392 41.6856C72.1129 38.7173 89.0857 35.3531 102.6 42.2009C110.094 45.3369 113.77 49.8852 113.832 56.1016C113.886 61.5309 111.283 67.3283 108.766 72.9341C105.185 80.9086 102.093 87.7954 108 91.0937C110.536 92.5098 114.572 93.1754 120.33 93.1213C126.598 93.0649 134.767 92.1671 145.303 90.3765C153.964 87.0201 163.586 85.0116 172.403 84.7222C177.375 84.5584 182.003 84.9456 186.156 85.872C190.715 86.889 194.695 88.5588 197.989 90.8353L198.003 90.848C200.226 93.4497 198.105 96.2908 196.056 99.038C194.154 101.589 192.185 104.226 193.541 106.741C194.91 108.95 198.372 110.382 201.036 111.193C204.388 112.214 208.353 112.824 211.92 112.871C217.001 110.918 221.133 108.055 225.129 105.285C227.598 103.575 230.15 101.806 232.893 100.276L233.046 100.367C230.311 101.893 227.762 103.659 225.298 105.367C221.285 108.148 217.134 111.025 212.014 112.988L211.985 112.999V113Z" fill="white"/>
<path id="Vector_2" d="M213.703 104.253C208.984 104.253 203.761 103.278 200.299 101.711C198.612 100.946 197.411 100.093 196.729 99.174C195.005 96.849 196.656 94.1948 198.253 91.6288C200.052 88.7385 201.751 86.0079 198.828 83.8332C186.864 74.9275 166.814 79.8439 148.781 85.8274C136.046 90.0528 126.957 92.1155 120.904 92.1155C118.691 92.1155 116.887 91.8403 115.455 91.2941C109.289 88.9428 110.764 81.8048 112.472 73.5392C113.645 67.8658 114.974 61.4347 113.919 55.7398C112.71 49.2149 108.552 44.6603 101.21 41.8152C88.4368 36.8662 75.1495 39.7781 62.299 42.5937C60.056 43.0851 57.7358 43.594 55.4817 44.044C47.7731 45.5834 38.8065 45.3926 31.8542 45.0546C25.2767 44.735 18.6317 43.9049 12.637 42.6557L12.6094 42.6501L12.5901 42.6374C9.38818 40.4881 6.59129 37.9166 4.50258 35.2004C2.26507 32.2909 0.916221 29.2869 0.599332 26.5142C0.433999 25.0686 0.562132 23.6588 0.980977 22.3238L1.19867 22.346C0.783954 23.67 0.657199 25.0694 0.821154 26.5054C1.43427 31.8695 6.00022 38.0128 12.7389 42.5412C18.7075 43.784 25.3236 44.6094 31.8721 44.9274C38.801 45.2646 47.7386 45.4546 55.4087 43.9232C57.66 43.4739 59.9774 42.9658 62.2204 42.4744C75.1233 39.6469 88.4657 36.7231 101.333 41.7087C108.733 44.576 112.921 49.1608 114.138 55.7255C115.196 61.4347 113.865 67.873 112.691 73.5535C110.991 81.7769 109.524 88.8792 115.576 91.1867C118.125 92.1592 121.862 92.2443 126.997 91.4475C132.556 90.5848 139.646 88.7098 148.672 85.7153C156.611 83.0818 165.948 80.2519 175.018 79.2341C179.863 78.6902 184.238 78.7283 188.02 79.3478C192.328 80.0531 196.023 81.5352 199.003 83.7537C202 85.9833 200.281 88.7456 198.461 91.6702C196.878 94.2131 195.242 96.8434 196.931 99.1223C197.598 100.022 198.776 100.858 200.434 101.609C204.21 103.319 210.107 104.316 215.121 104.093C217.393 103.105 219.565 101.853 221.762 100.265C223.528 98.9935 225.207 97.6179 226.832 96.2876C228.961 94.5446 231.161 92.7428 233.575 91.1597L233.74 91.244C231.333 92.8207 229.137 94.6202 227.012 96.3607C225.387 97.6926 223.704 99.0698 221.934 100.344C219.717 101.947 217.524 103.209 215.227 104.206L215.201 104.217L215.169 104.218C214.687 104.241 214.196 104.251 213.7 104.251L213.703 104.253Z" fill="white"/>
<path id="Vector_3" d="M215.01 95.6189C211.128 95.6189 206.979 94.9708 203.918 93.8258C202.2 93.1833 200.925 92.424 200.129 91.5692C198.131 89.4239 199.318 86.7983 200.464 84.2586C201.755 81.3977 202.976 78.6949 199.849 76.7564C187.047 68.8152 168.561 74.5276 152.167 81.1631C139.766 86.1821 131.005 88.6136 125.179 88.6136C123.578 88.6136 122.199 88.4299 121.027 88.0658C114.761 86.1176 115.108 79.1999 115.509 71.1888C115.784 65.6903 116.097 59.4587 114.233 54.0509C112.097 47.8559 107.431 43.6965 99.966 41.3349C87.0246 37.2415 74.7624 40.6734 62.9038 43.9931C60.7848 44.5863 58.5941 45.1994 56.4586 45.7512C49.0324 47.6675 40.1181 47.8567 34.0587 47.8329C27.2745 47.8059 20.9133 47.3089 15.1542 46.3571L15.1294 46.3531L15.1101 46.3428C7.96631 42.5022 2.63844 36.8821 1.20417 31.6723C0.829419 30.3102 0.742619 28.9529 0.947908 27.6369L1.16835 27.6481C0.964441 28.9529 1.05124 30.3007 1.42324 31.6516C2.84924 36.8296 8.14266 42.4163 15.241 46.2362C20.9753 47.1825 27.3062 47.6762 34.0614 47.7033C40.1002 47.7279 48.9827 47.5395 56.369 45.6327C58.5018 45.0825 60.6911 44.4694 62.8088 43.877C74.7183 40.543 87.0315 37.096 100.074 41.2212C107.599 43.6019 112.303 47.79 114.451 54.0247C116.319 59.4468 116.006 65.6863 115.731 71.1911C115.331 79.1601 114.987 86.0413 121.133 87.9521C123.722 88.7567 127.315 88.6526 132.118 87.6332C137.319 86.5295 143.836 84.3787 152.042 81.0573C159.259 78.136 167.79 74.9578 176.335 73.5297C180.901 72.7671 185.1 72.585 188.82 72.9906C193.057 73.4525 196.824 74.6898 200.013 76.6681C203.222 78.6584 201.988 81.3937 200.68 84.2896C199.545 86.8055 198.371 89.4072 200.328 91.508C201.106 92.3437 202.356 93.0879 204.042 93.7185C207.967 95.1871 213.704 95.8288 218.328 95.3175C220.475 94.2608 222.426 92.9575 224.288 91.3354C225.767 90.0489 227.154 88.6701 228.498 87.3366C230.3 85.5467 232.164 83.6956 234.265 82.0465L234.443 82.122C232.348 83.7656 230.487 85.6135 228.688 87.4002C227.343 88.7353 225.954 90.1157 224.472 91.4054C222.59 93.0434 220.619 94.3586 218.448 95.4249L218.426 95.436L218.397 95.4392C217.317 95.56 216.177 95.6181 215.013 95.6181L215.01 95.6189Z" fill="white"/>
<path id="Vector_4" d="M216.322 87.1132C213.268 87.1132 210.108 86.71 207.539 85.9403C205.792 85.4163 204.443 84.7516 203.532 83.9628C201.26 81.998 201.979 79.3995 202.677 76.8868C203.461 74.0553 204.202 71.3812 200.87 69.6772C187.23 62.7006 170.307 69.2088 155.551 76.4956C141.32 83.5239 132.119 86.1741 126.598 84.8343C120.232 83.2901 119.451 76.5918 118.544 68.8359C117.923 63.5132 117.217 57.4796 114.546 52.3597C111.484 46.4939 106.308 42.7296 98.7205 40.8515C85.6055 37.6049 74.3532 41.5584 63.4728 45.3823C61.4902 46.0788 59.4401 46.7992 57.4327 47.4544C51.1638 49.5003 43.5529 50.1786 36.2645 50.6064C30.0438 50.9713 23.6124 50.7805 17.6686 50.0545L17.6452 50.0514L17.6259 50.0434C10.1404 46.9145 4.0796 41.8518 1.80626 36.8304C1.22622 35.5495 0.925864 34.2438 0.912086 32.9501H1.13253C1.14631 34.2319 1.44391 35.5272 2.01982 36.7978C4.278 41.7874 10.2989 46.8183 17.7361 49.9321C23.6523 50.6541 30.0507 50.8425 36.2411 50.4791C43.5061 50.0522 51.0894 49.3771 57.3238 47.3431C59.3285 46.6887 61.3772 45.9691 63.3585 45.2725C74.287 41.432 85.5876 37.461 98.8087 40.7338C106.46 42.6279 111.677 46.4183 114.758 52.3223C117.438 57.4566 118.143 63.4973 118.764 68.8272C119.666 76.5409 120.444 83.2034 126.684 84.7166C129.311 85.3543 132.763 85.0601 137.235 83.8181C142.078 82.4727 148.022 80.0459 155.408 76.3986C161.904 73.1901 169.626 69.6629 177.647 67.8245C181.931 66.8425 185.959 66.4409 189.615 66.6326C193.782 66.8504 197.617 67.8428 201.018 69.5818C204.439 71.3319 203.689 74.0394 202.896 76.9067C202.207 79.3955 201.493 81.9694 203.717 83.892C204.607 84.6617 205.928 85.313 207.642 85.8266C211.716 87.048 217.293 87.3342 221.527 86.5415C223.532 85.4211 225.309 84.0296 226.808 82.4051C228.014 81.0987 229.123 79.7104 230.196 78.3674C231.66 76.5361 233.172 74.6429 234.948 72.9333L235.137 72.9985C233.368 74.7025 231.858 76.5926 230.396 78.4206C229.321 79.7652 228.211 81.1551 227.003 82.4647C225.488 84.1059 223.692 85.5118 221.662 86.6432L221.644 86.6536L221.62 86.6584C219.998 86.9645 218.179 87.1132 216.324 87.1132H216.322Z" fill="white"/>
<path id="Vector_5" d="M134.314 81.7825C133.556 81.7825 132.843 81.7229 132.17 81.6044C125.704 80.4642 123.793 73.9861 121.581 66.4855C120.062 61.3377 118.34 55.5037 114.86 50.67C110.873 45.1334 105.186 41.7643 97.4764 40.3688C84.1795 37.9627 73.9219 42.4402 64.0033 46.7698C62.1695 47.5705 60.2723 48.3982 58.4067 49.1584C52.7675 51.4548 45.4915 52.5449 38.4676 53.3814C32.4591 54.0971 26.1351 54.2259 20.1803 53.7536L20.161 53.752L20.1431 53.7464C12.3311 51.3196 5.53591 46.8151 2.40836 41.9901C1.62716 40.7855 1.11187 39.5323 0.876266 38.2657L1.09533 38.2522C1.32956 39.5085 1.84071 40.7513 2.61364 41.9456C5.72053 46.7396 12.4689 51.2155 20.2285 53.6295C26.153 54.0979 32.4425 53.969 38.4207 53.2574C45.4198 52.4233 52.6697 51.3371 58.2772 49.055C60.1414 48.2965 62.0358 47.4687 63.8683 46.6688C73.8323 42.3193 84.1354 37.822 97.5398 40.248C105.316 41.6546 111.046 45.0483 115.061 50.6215C118.551 55.4679 120.274 61.3098 121.796 66.464C123.996 73.9233 125.897 80.3664 132.232 81.4827C134.901 81.9535 138.21 81.4692 142.351 80.0046C146.835 78.4174 152.207 75.7147 158.772 71.7414C164.548 68.2459 171.463 64.3696 178.957 62.1209C182.961 60.9194 186.814 60.2984 190.408 60.2762C194.501 60.2499 198.408 60.9974 202.018 62.4962C205.651 64.0054 205.387 66.6858 205.106 69.5229C204.862 71.9847 204.61 74.5308 207.103 76.2769C208.105 76.9782 209.497 77.5364 211.24 77.9364C215.46 78.9041 220.876 78.8357 224.725 77.767C226.613 76.5656 228.161 75.1224 229.326 73.4756C230.264 72.1493 231.1 70.7506 231.909 69.3973C233.028 67.5255 234.184 65.5909 235.628 63.8201L235.827 63.8742C234.389 65.6386 233.234 67.5708 232.117 69.4386C231.307 70.7936 230.471 72.1938 229.529 73.5233C228.351 75.1876 226.785 76.6474 224.873 77.8608L224.859 77.8704L224.84 77.876C220.936 78.9637 215.436 79.0353 211.157 78.0541C209.378 77.6462 207.956 77.0752 206.931 76.3572C204.384 74.5729 204.639 72.0022 204.884 69.515C205.161 66.7137 205.423 64.0666 201.887 62.5988C187.409 56.5851 172.049 63.8901 158.931 71.8289C147.796 78.5677 139.872 81.7825 134.311 81.7825H134.314Z" fill="white"/>
<path id="Vector_6" d="M139.07 78.4461C138.615 78.4461 138.173 78.4222 137.743 78.3737C131.18 77.6382 128.139 71.3804 124.619 64.1342C122.202 59.1621 119.464 53.5261 115.175 48.9803C110.262 43.7729 104.066 40.7982 96.2337 39.8862C82.7411 38.315 73.4659 43.3212 64.4952 48.1629C62.8225 49.0654 61.0934 49.9989 59.3808 50.8624C54.075 53.5381 46.9423 54.998 40.672 56.1565C35.1636 57.1743 28.7763 58.1976 22.6796 57.4518C18.8728 56.9858 14.9682 55.708 11.3887 53.7551C8.09031 51.9557 5.19422 49.6713 3.0132 47.1499C2.03222 46.0168 1.30338 44.8161 0.843201 43.5812L1.05951 43.5542C1.51556 44.7787 2.23889 45.9691 3.21022 47.0926C6.88062 51.3355 13.9348 56.2519 22.7251 57.327C28.7694 58.0664 35.1237 57.0479 40.6045 56.0348C46.8527 54.8803 53.9607 53.426 59.2348 50.7662C60.9446 49.9043 62.6724 48.9715 64.3436 48.0698C73.3543 43.2059 82.6722 38.1774 96.2764 39.7613C104.177 40.6813 110.422 43.6767 115.368 48.9199C119.67 53.4784 122.411 59.1216 124.831 64.1008C128.332 71.3064 131.355 77.5293 137.786 78.2497C140.495 78.5526 143.662 77.8799 147.472 76.1926C151.598 74.3646 156.397 71.3852 162.144 67.0858C167.199 63.3033 173.305 59.0779 180.273 56.4189C183.997 54.998 187.674 54.1575 191.205 53.9205C195.228 53.6502 199.205 54.1527 203.022 55.4114C206.868 56.6797 207.087 59.3315 207.32 62.14C207.521 64.5755 207.73 67.0945 210.493 68.6626C211.603 69.2931 213.066 69.7591 214.841 70.0469C219.078 70.7347 224.768 70.6767 227.93 68.9941C230.053 67.865 231.031 66.1785 231.851 64.5477C232.528 63.2015 233.095 61.7909 233.645 60.4264C234.414 58.5157 235.209 56.5398 236.316 54.7093L236.525 54.7515C235.421 56.5755 234.627 58.5483 233.86 60.4559C233.31 61.8219 232.741 63.2341 232.063 64.5843C231.235 66.2326 230.245 67.9374 228.08 69.0888C224.855 70.8039 219.076 70.8683 214.782 70.1702C212.97 69.876 211.475 69.3997 210.338 68.754C207.514 67.1502 207.303 64.6065 207.099 62.1463C206.869 59.3745 206.653 56.756 202.914 55.5228C187.598 50.472 173.797 58.5729 162.319 67.1637C152.083 74.8242 144.635 78.4477 139.072 78.4477L139.07 78.4461Z" fill="white"/>
<path id="Vector_7" d="M143.898 75.1558C143.702 75.1558 143.509 75.151 143.318 75.1414C136.656 74.8107 132.486 68.7731 127.658 61.7822C124.344 56.985 120.59 51.5478 115.492 47.289C109.653 42.4108 102.948 39.8305 94.9909 39.4011C81.2875 38.6617 72.9809 44.2054 64.9484 49.5663C63.4494 50.5666 61.9008 51.6003 60.3549 52.564C55.6195 55.5172 48.8505 57.3977 42.8778 58.9284C37.6436 60.2698 31.7412 60.688 26.0331 61.092L25.2244 61.1492C21.4313 61.4196 17.3958 60.5879 13.2294 58.6779C8.94591 56.7147 5.64062 54.1289 3.6208 52.3056C2.44004 51.2393 1.49627 50.0911 0.812889 48.8928L1.02231 48.8531C1.6988 50.0418 2.63569 51.1805 3.80542 52.2372C6.2868 54.4787 15.1652 61.736 25.1954 61.022L26.0042 60.9648C31.6972 60.5616 37.583 60.145 42.7869 58.8115C48.7403 57.2856 55.4845 55.4114 60.1924 52.4766C61.7355 51.5144 63.2841 50.4815 64.7804 49.482C72.85 44.0973 81.1938 38.5281 95.0102 39.2739C103.034 39.7065 109.794 42.305 115.673 47.2159C120.784 51.4866 124.544 56.931 127.862 61.7345C132.663 68.6856 136.809 74.6898 143.336 75.0134C146.084 75.1502 149.111 74.2875 152.59 72.3767C156.358 70.3069 160.586 67.0516 165.511 62.4254C169.844 58.3559 175.143 53.7814 181.586 50.7121C185.029 49.0725 188.532 48.0118 191.999 47.561C195.95 47.0473 199.995 47.3033 204.023 48.3227C208.079 49.3492 208.783 51.9732 209.528 54.7507C210.174 57.16 210.844 59.652 213.878 61.0435C215.093 61.6009 216.628 61.9738 218.438 62.1535C223.496 62.6536 228.597 61.8752 231.131 60.2157C233.16 58.887 233.929 57.059 234.372 55.615C234.793 54.2466 235.097 52.8209 235.391 51.4429C235.805 49.4955 236.235 47.4814 237.001 45.593L237.216 45.6224C236.453 47.5045 236.024 49.5146 235.61 51.4588C235.316 52.8391 235.012 54.2656 234.59 55.6381C234.141 57.0987 233.361 58.9483 231.296 60.3008C229.233 61.6518 225.511 62.431 221.481 62.431C220.466 62.431 219.432 62.3817 218.4 62.2791C216.552 62.0962 214.983 61.7146 213.739 61.1437C210.636 59.7211 209.961 57.2045 209.308 54.7706C208.572 52.0281 207.876 49.4375 203.932 48.4396C187.776 44.3509 175.537 53.2486 165.696 62.4914C156.518 71.1108 149.566 75.1534 143.894 75.1542L143.898 75.1558Z" fill="white"/>
<path id="Vector_8" d="M149.106 71.5943C142.34 71.5943 137.067 65.711 130.966 58.9029C126.721 54.167 121.911 48.7982 115.969 44.867C109.172 40.3696 101.906 38.4231 93.7578 38.9169C79.3862 39.7876 71.8676 45.8307 64.5957 51.6742C63.5321 52.5298 62.4312 53.414 61.3276 54.2664C57.1254 57.5154 50.738 59.8078 45.0809 61.7019C39.6111 63.5331 33.243 64.3195 27.7333 64.8475C23.8039 65.2244 19.5452 64.6352 15.0756 63.0973C11.2385 61.7766 7.48546 59.8285 4.22564 57.4653C2.84097 56.4618 1.68226 55.3661 0.781197 54.2084L0.982352 54.1559C1.87653 55.3041 3.0256 56.3903 4.39786 57.3858C10.0344 61.4721 19.1153 65.5448 27.6975 64.7226C33.1865 64.1962 39.5312 63.413 44.9707 61.5921C50.6085 59.7044 56.9725 57.4208 61.1513 54.1909C62.2535 53.3393 63.353 52.4551 64.4166 51.6011C68.0581 48.675 71.8236 45.6486 76.4171 43.2998C81.5796 40.6591 87.245 39.1849 93.7357 38.7913C101.961 38.2927 109.288 40.2535 116.136 44.7843C122.095 48.7274 126.913 54.1026 131.163 58.8457C137.261 65.6506 142.53 71.5283 149.208 71.4679C151.968 71.4432 154.817 70.4167 157.918 68.331C161.281 66.0688 164.868 62.6147 168.882 57.7722C172.495 53.4156 176.985 48.4921 182.901 45.0133C186.062 43.1542 189.392 41.8749 192.795 41.2101C196.674 40.4523 200.789 40.4635 205.026 41.2427C209.291 42.0267 210.479 44.6229 211.737 47.3709C212.828 49.7548 213.958 52.2205 217.265 53.4339C218.58 53.9166 220.187 54.198 222.039 54.2688C227.063 54.462 232.003 53.3282 234.335 51.446C235.819 50.2493 236.658 48.6932 236.899 46.6903C237.067 45.2956 237.11 43.8524 237.151 42.4569C237.209 40.4762 237.27 38.4279 237.69 36.4845L237.909 36.5004C237.489 38.4366 237.43 40.4818 237.372 42.4593C237.33 43.8564 237.289 45.3011 237.12 46.699C236.874 48.7258 236.023 50.3026 234.514 51.52C233.314 52.4877 231.471 53.2701 229.181 53.783C226.965 54.2792 224.49 54.4907 222.023 54.396C220.134 54.3237 218.494 54.0358 217.145 53.5413C213.764 52.3008 212.624 49.8112 211.522 47.4027C210.279 44.6897 209.107 42.1269 204.957 41.3636C187.962 38.2378 177.283 47.9323 169.08 57.8271C165.055 62.6807 161.459 66.1435 158.083 68.4145C154.938 70.5304 152.035 71.5704 149.209 71.5959C149.175 71.5959 149.139 71.5959 149.104 71.5959L149.106 71.5943Z" fill="white"/>
<path id="Vector_9" d="M153.643 68.7047C147.092 68.7047 140.885 63.2993 133.74 57.0789C128.632 52.6324 122.843 47.592 116.127 43.9073C108.435 39.6858 100.707 37.8951 92.504 38.4319C78.3294 39.359 71.9489 46.0064 65.7779 52.4352C64.6508 53.6096 63.4852 54.8238 62.3004 55.9688C58.7815 59.3689 53.0045 62.066 47.2853 64.4745C41.6764 66.8369 35.9393 68.207 30.2353 68.5473C25.9367 68.8041 21.3004 68.3819 16.8309 67.3283C12.4248 66.2899 8.27631 64.663 4.83462 62.6234C3.24053 61.6796 1.86827 60.6356 0.752266 59.5224L0.943777 59.4587C2.05013 60.5632 3.41138 61.5977 4.99307 62.5344C11.9825 66.6763 21.6463 68.9313 30.2133 68.4208C35.7988 68.0877 41.6571 66.6874 47.1572 64.372C52.8571 61.9714 58.6134 59.2846 62.113 55.9036C63.2965 54.7602 64.4607 53.5468 65.5877 52.3732C71.7864 45.9166 78.1958 39.2405 92.4833 38.3054C100.756 37.7639 108.54 39.5665 116.283 43.815C123.016 47.5101 128.813 52.5561 133.927 57.0081C141.328 63.452 147.721 69.018 154.442 68.5489C157.272 68.3517 160.018 67.1097 162.837 64.7528C165.89 62.1996 168.972 58.3924 172.258 53.1135C175.149 48.4698 178.831 43.198 184.221 39.3089C187.101 37.2312 190.256 35.7315 193.596 34.8529C197.402 33.8518 201.585 33.6172 206.032 34.1564C210.505 34.6986 212.178 37.2662 213.948 39.9832C215.484 42.3424 217.074 44.7819 220.657 45.8172C222.069 46.2251 223.748 46.4143 225.644 46.3778C230.714 46.2808 235.385 44.8256 237.545 42.67C238.887 41.331 239.539 39.6325 239.432 37.76C239.349 36.3366 239.131 34.872 238.919 33.4558C238.619 31.4449 238.309 29.3656 238.384 27.3714L238.605 27.3745C238.529 29.3624 238.839 31.4377 239.138 33.4455C239.35 34.8632 239.568 36.3295 239.651 37.7568C239.76 39.654 239.098 41.3755 237.736 42.7352C235.538 44.9282 230.794 46.4088 225.651 46.5066C223.715 46.5432 222.003 46.3507 220.557 45.9325C216.898 44.8749 215.293 42.4116 213.742 40.0293C211.993 37.3457 210.341 34.8108 205.986 34.282C188.149 32.1184 179.031 42.6096 172.465 53.158C166.131 63.3311 160.412 68.2626 154.467 68.6769C154.193 68.696 153.918 68.7055 153.646 68.7055L153.643 68.7047Z" fill="white"/>
<path id="Vector_10" d="M27.1739 72.5564C19.5603 72.5564 11.7469 70.8707 5.44222 67.7792C3.6332 66.8918 2.04462 65.901 0.723335 64.8347L0.902446 64.7608C2.21409 65.8191 3.78889 66.8019 5.58414 67.6822C13.3948 71.5124 23.5338 73.1711 32.7084 72.1191C38.6067 71.4424 44.3576 69.7249 49.3396 67.151C54.6826 64.391 60.0436 61.3258 63.0705 57.6164C64.068 56.3942 65.0366 55.1029 65.9735 53.8545C71.2325 46.8477 76.6706 39.6031 91.2144 37.822C99.6092 36.7939 107.908 38.1981 116.582 42.1158C124.125 45.5222 130.94 50.3702 136.952 54.6465C145.655 60.8375 153.17 66.1841 159.989 65.3182C162.86 64.954 165.467 63.5219 167.955 60.9417C170.65 58.1475 173.159 54.0637 175.627 48.4579C177.043 45.2383 179.299 40.4826 182.517 36.3645C186.068 31.8202 190.198 28.805 194.793 27.4016C198.524 26.2621 202.649 26.1532 207.055 27.078C211.263 27.9606 213.499 30.3571 215.659 32.675C217.783 34.9507 219.977 37.3043 224.038 38.206C225.542 38.54 227.292 38.6362 229.24 38.4923C234.367 38.113 238.776 36.3526 240.746 33.8979C241.95 32.3983 242.368 30.6466 241.954 28.8328C241.622 27.3769 241.141 25.8876 240.677 24.4468C240.02 22.4096 239.341 20.3033 239.071 18.2606L239.291 18.251C239.56 20.2866 240.239 22.3898 240.895 24.4238C241.361 25.8654 241.841 27.3571 242.173 28.8161C242.594 30.6537 242.169 32.4301 240.947 33.952C238.945 36.4456 234.47 38.2339 229.269 38.6187C227.285 38.7658 225.498 38.6672 223.959 38.3253C219.823 37.4069 217.609 35.0326 215.467 32.7362C213.324 30.4398 211.11 28.0655 206.981 27.1988C202.635 26.2868 198.571 26.3933 194.896 27.5153C190.346 28.9052 186.248 31.9005 182.718 36.4178C179.508 40.5271 177.255 45.2757 175.84 48.4905C171.087 59.2918 166.065 64.6789 160.036 65.4446C159.53 65.509 159.02 65.54 158.508 65.54C151.977 65.54 144.891 60.4996 136.78 54.7284C130.776 50.4569 123.97 45.6152 116.446 42.2176C107.826 38.3253 99.5872 36.9282 91.2599 37.9484C76.8276 39.716 71.413 46.9304 66.176 53.907C65.2378 55.1562 64.2678 56.4483 63.2689 57.6728C60.2254 61.4037 54.8452 64.4801 49.4856 67.2488C44.4733 69.8378 38.6866 71.5657 32.7498 72.2471C30.9201 72.457 29.0518 72.5596 27.1725 72.5596L27.1739 72.5564Z" fill="white"/>
<path id="Vector_11" d="M26.164 76.6753C24.231 76.6753 22.2897 76.5799 20.3704 76.3874C15.2768 75.8777 10.3251 74.6842 6.04982 72.9349C4.0176 72.104 2.21684 71.1657 0.694397 70.1463L0.861108 70.0628C2.37115 71.0743 4.15951 72.0054 6.17657 72.8299C14.6926 76.3135 25.544 77.4307 35.205 75.8173C41.343 74.7924 46.9864 72.7568 51.5261 69.93C56.2739 66.9737 61.4737 63.4019 64.0322 59.3275C64.8451 58.033 65.6208 56.6725 66.3717 55.3558C70.6841 47.7915 75.1426 39.9697 89.951 37.3362C98.4698 35.8214 107.279 36.8281 116.885 40.4142C125.239 43.5327 133.071 48.1812 139.982 52.2825C149.986 58.2199 158.625 63.3478 165.543 62.0851C168.457 61.5532 170.922 59.9319 173.081 57.1274C175.417 54.0915 177.354 49.7317 179.002 43.7991C179.949 40.3927 181.514 35.3507 184.179 30.9169C187.119 26.0252 190.904 22.684 195.43 20.9855C199.104 19.6067 203.354 19.272 208.061 19.9916C212.554 20.6786 215.252 23.037 217.861 25.3175C220.425 27.5598 223.077 29.8785 227.427 30.5901C229.018 30.8509 230.841 30.8541 232.844 30.6013C237.966 29.954 242.224 27.8532 243.956 25.1203C244.999 23.4743 245.182 21.6694 244.485 19.8994C243.9 18.3981 243.15 16.8714 242.426 15.3956C241.418 13.3442 240.375 11.2227 239.765 9.1442L239.983 9.12273C240.592 11.1949 241.632 13.3124 242.638 15.3607C243.364 16.838 244.115 18.3663 244.7 19.8707C245.407 21.6646 245.221 23.495 244.163 25.1632C242.405 27.9367 238.086 30.0685 232.89 30.7253C230.851 30.9829 228.992 30.9789 227.365 30.7126C222.937 29.9874 220.263 27.6489 217.675 25.3875C215.089 23.1261 212.415 20.7883 208.003 20.114C203.36 19.404 199.17 19.7332 195.549 21.0921C191.065 22.7746 187.309 26.0944 184.387 30.9583C181.728 35.3825 180.165 40.4165 179.22 43.8182C176.047 55.2476 171.722 61.0904 165.609 62.206C158.563 63.4917 149.879 58.3384 139.824 52.3708C132.921 48.2742 125.098 43.6313 116.765 40.5207C107.219 36.9569 98.4684 35.955 90.0171 37.4578C75.3176 40.0723 70.877 47.8623 66.5825 55.3955C65.8316 56.7123 65.0545 58.0744 64.2416 59.3705C61.6693 63.4655 56.4531 67.05 51.6901 70.0159C47.1227 72.8594 41.4449 74.9077 35.2684 75.939C32.3447 76.4272 29.2668 76.6737 26.1654 76.6737L26.164 76.6753Z" fill="white"/>
<path id="Vector_12" d="M24.9557 80.9874C18.5421 80.9874 12.225 80.0006 6.65604 78.0906C4.39511 77.3154 2.37942 76.4296 0.665466 75.4587L0.819777 75.3681C2.52133 76.3318 4.52324 77.2112 6.76902 77.9817C22.2966 83.3068 42.4783 81.0414 53.714 72.7115C58.7099 69.0077 62.6104 64.9731 64.9953 61.0419C65.1703 60.5107 65.3439 59.974 65.5188 59.4325C68.4204 50.4497 71.7092 40.2687 88.6931 36.8543C97.1127 34.6358 105.783 35.0302 115.188 38.0621C123.401 40.71 130.86 44.8734 138.073 48.8992C148.333 54.6258 157.193 59.5717 165.077 58.231C168.462 57.6554 171.449 55.9561 174.209 53.0379C177.213 49.8613 179.883 45.317 182.375 39.1435C181.58 33.1402 183.294 27.3181 187.2 22.7484C189.403 20.1705 192.266 18.0371 195.711 16.4079C199.49 14.6196 203.97 13.4428 209.025 12.9108L209.038 12.9092H209.052C214.069 13.0754 217.309 15.5396 220.442 17.9226C223.35 20.1355 226.358 22.4232 230.816 22.9814C232.566 23.1563 234.462 23.0672 236.447 22.7166C240.538 21.9946 243.896 20.382 245.902 18.1771C247.939 15.9371 248.336 13.3784 247.015 10.9706C246.176 9.44158 245.165 7.89502 244.185 6.39935C242.822 4.31685 241.411 2.16359 240.457 0.0325994L240.67 0.000793457C241.622 2.12543 243.03 4.27551 244.39 6.35482C245.37 7.85208 246.384 9.39944 247.224 10.9325C248.562 13.3728 248.161 15.9666 246.096 18.2367C244.061 20.4719 240.656 22.1059 236.511 22.8382C234.492 23.1945 232.561 23.2851 230.774 23.1062C226.231 22.5377 223.199 20.2309 220.265 17.9998C217.023 15.5332 213.961 13.2034 209.052 13.0372C188.667 15.1889 181.077 27.6982 182.597 39.1443V39.1539L182.594 39.1634C180.096 45.3528 177.418 49.9114 174.403 53.0992C171.615 56.0492 168.585 57.7683 165.14 58.3535C161.474 58.9777 157.4 58.3265 152.322 56.3052C147.8 54.5058 143.001 51.8269 137.92 48.9906C130.717 44.9704 123.268 40.8125 115.08 38.1726C105.742 35.1622 97.1375 34.7694 88.7757 36.972C71.9035 40.3633 68.6271 50.5062 65.7365 59.4556C65.5616 59.9987 65.3866 60.5378 65.2116 61.0705L65.2075 61.0801C62.8156 65.0256 58.9014 69.0745 53.889 72.7902C48.4316 76.8359 40.6431 79.6078 31.9603 80.5938C29.6346 80.8578 27.2896 80.9882 24.9571 80.9882L24.9557 80.9874Z" fill="white"/>
</g>
<defs>
<clipPath id="clip0_16_181">
<rect width="248" height="113" fill="white"/>
</clipPath>
</defs>
</svg>
